<svg width="70" height="70" viewBox="0 0 70 70" fill="none" xmlns="http://www.w3.org/2000/svg">
<g clip-path="url(#clip0)">
<path d="M55.3051 2.9707C54.6488 2.9707 53.9728 3.05561 53.2979 3.22216L53.8171 5.33502C57.9329 4.32485 61.5218 7.45658 61.5218 11.3655C61.5218 20.5213 51.0958 27.2691 46.7492 28.5395L47.3599 30.6295C52.881 29.0152 63.7 21.477 63.7011 11.3655C63.7011 6.73597 59.9347 2.9707 55.3051 2.9707Z" fill="#682121"/>
<path d="M8.47481 11.3656C8.47481 7.45661 12.0626 4.32052 16.1795 5.33613L16.7009 3.22218C11.2539 1.88327 6.29881 6.08069 6.29881 11.3656C6.29881 21.4781 17.1189 29.0163 22.6378 30.6295L23.2485 28.5395C18.9009 27.2681 8.47481 20.5213 8.47481 11.3656Z" fill="#682121"/>
<path d="M38.7744 40.6876H31.2243C30.6234 40.6876 30.1357 41.1742 30.1357 41.7762V45.9072C30.1357 46.2348 30.2848 46.5472 30.5406 46.7541C30.7355 46.9119 30.9772 46.9957 31.2243 46.9957C31.3005 46.9957 31.3777 46.987 31.4539 46.9707C33.6963 46.4863 36.3034 46.4863 38.5447 46.9707C38.8669 47.0382 39.2022 46.9598 39.458 46.7541C39.7138 46.5472 39.8629 46.237 39.8629 45.9072V41.7762C39.8629 41.1742 39.3763 40.6876 38.7744 40.6876ZM37.6858 44.6096C35.942 44.3691 34.0566 44.368 32.3128 44.6107V42.8647V42.8636H37.6858V44.6096Z" fill="#682121"/>
<path d="M49.6916 63.6351H20.3075C19.7066 63.6351 19.2189 64.1217 19.2189 64.7237V68.7448C19.2189 69.3467 19.7066 69.8333 20.3075 69.8333H49.6916C50.2935 69.8333 50.7801 69.3467 50.7801 68.7448V64.7237C50.7801 64.1217 50.2935 63.6351 49.6916 63.6351ZM48.603 67.6562H21.396V65.8122H48.603V67.6562Z" fill="#682121"/>
<path d="M47.8073 48.2987H22.1917C21.5908 48.2987 21.1032 48.7853 21.1032 49.3872V64.7237C21.1032 65.3257 21.5908 65.8123 22.1917 65.8123H47.8073C48.4082 65.8123 48.8958 65.3246 48.8958 64.7237V49.3872C48.8958 48.7853 48.4092 48.2987 47.8073 48.2987ZM46.7187 63.6352H23.2803V50.4758H46.7187V63.6352Z" fill="#682121"/>
<path d="M43.4542 52.6517H26.5459C25.945 52.6517 25.4573 53.1383 25.4573 53.7403V60.3684C25.4573 60.9704 25.945 61.4569 26.5459 61.4569H43.4542C44.0551 61.4569 44.5427 60.9693 44.5427 60.3684V53.7403C44.5427 53.1383 44.0562 52.6517 43.4542 52.6517ZM42.3656 59.2799H27.6344V54.8288H42.3656V59.2799Z" fill="#682121"/>
<path d="M54.1839 0.714162C53.8356 0.361475 53.3719 0.166626 52.8777 0.166626H17.1223C16.6303 0.166626 16.1666 0.360386 15.8183 0.710897C15.4699 1.0625 15.2794 1.5273 15.2816 2.0215C15.2892 2.7628 15.3186 3.49212 15.3524 4.32268C15.3796 4.99322 15.4177 5.65723 15.4623 6.31797C16.0055 14.3797 17.8016 21.7459 20.6579 27.6207C21.0781 28.485 21.532 29.3319 22.0055 30.1353C24.187 33.8396 26.6852 36.4967 29.4337 38.0348C29.7222 38.1959 30.0651 38.2166 30.3655 38.0969C30.6181 38.1056 30.9033 38.1056 31.2233 38.1056H39.6508C39.7738 38.1513 39.9033 38.1741 40.0329 38.1741C40.2157 38.1741 40.3986 38.1284 40.5652 38.0359C43.3126 36.4989 45.8119 33.8407 47.9934 30.1364C48.4636 29.3341 48.9165 28.4883 49.3388 27.6229C52.1973 21.7448 53.9934 14.3775 54.5355 6.31906C54.579 5.65832 54.6171 4.99649 54.6444 4.3205C54.6759 3.55961 54.7064 2.79763 54.714 2.02694C54.7206 1.53275 54.5322 1.06685 54.1839 0.714162ZM52.4695 4.23342C52.4412 4.88545 52.4063 5.52987 52.3628 6.17211C51.8403 13.9541 50.1171 21.0416 47.3805 26.6693C46.9843 27.4836 46.5587 28.2793 46.1167 29.0315C44.2597 32.185 42.1022 34.5602 39.8565 35.9274H31.2244C31.2266 35.9285 30.4929 35.9274 30.1435 35.9274C27.8967 34.5591 25.7392 32.185 23.8833 29.0304C23.4391 28.276 23.0135 27.4825 22.6184 26.6693C19.8829 21.0438 18.1608 13.9563 17.6361 6.17211C17.5937 5.53096 17.5567 4.88545 17.5262 4.13545C17.5022 3.54002 17.4772 2.94458 17.4663 2.34371H52.5315C52.5206 2.97833 52.4945 3.60533 52.4695 4.23342Z" fill="#682121"/>
<path d="M48.077 4.88C48.0596 5.22181 48.04 5.54402 48.0182 5.86296C47.5643 12.6076 46.0294 18.9646 43.6956 23.7629C43.3691 24.4335 43.0142 25.0975 42.6408 25.7332C41.3509 27.9233 39.9053 29.6236 38.4619 30.6512L39.7246 32.4256C41.4162 31.2216 43.0719 29.2895 44.5175 26.8381C44.9202 26.1512 45.3034 25.4371 45.6539 24.7154C48.1064 19.67 49.7174 13.0267 50.1909 6.00665C50.2127 5.67464 50.2323 5.34481 50.2519 4.99321L48.077 4.88Z" fill="#682121"/>
<path d="M38.7746 35.9285H31.1755C29.3435 35.9285 29.1617 39.4804 29.1617 39.5163C29.1617 39.55 29.3751 42.8658 31.2245 42.8658H38.8247C40.6252 42.8658 40.8385 39.55 40.8385 39.5163C40.8385 39.4804 40.6567 35.9285 38.7746 35.9285ZM38.3773 40.6887H31.6218C31.4803 40.3316 31.3421 39.7384 31.3377 39.5174C31.341 39.2529 31.4988 38.5257 31.6545 38.1056H38.3447C38.5014 38.5257 38.6582 39.2529 38.6614 39.5152C38.6582 39.7384 38.5188 40.3327 38.3773 40.6887Z" fill="#682121"/>
<path d="M39.0042 44.8425C36.4614 44.295 33.5386 44.2928 30.9947 44.8425C27.3884 45.623 25.2352 47.3222 25.2352 49.3861C25.2352 49.988 25.7229 50.4746 26.3238 50.4746H43.6751C44.276 50.4746 44.7637 49.988 44.7637 49.3861C44.7637 47.3211 42.6105 45.623 39.0042 44.8425ZM28.1808 48.2975C28.8535 47.7914 29.9573 47.295 31.4541 46.9706C33.6975 46.4862 36.3046 46.4862 38.5437 46.9706C40.0416 47.295 41.1453 47.7914 41.8181 48.2975H28.1808Z" fill="#682121"/>
</g>
<defs>
<clipPath id="clip0">
<rect width="69.6667" height="69.6667" fill="white" transform="translate(0.166672 0.166626)"/>
</clipPath>
</defs>
</svg>
