<svg width="237" height="83" viewBox="0 0 237 83" fill="none" xmlns="http://www.w3.org/2000/svg">
<path d="M17.7589 51.3626V48.2952C17.7589 46.3348 17.9203 44.6972 18.2663 42.783L18.5892 41.0532H18.4739L14.161 51.3626H9.70974L5.39686 41.0532H5.28154L5.60443 42.783C5.92732 44.6972 6.11183 46.3578 6.11183 48.2952V51.3626H0V31.5972H6.45778L10.0326 38.8391C10.886 40.5919 11.3934 42.1833 11.6701 44.0976L11.9238 45.712L12.1775 44.0976C12.4543 42.1833 12.9617 40.5919 13.815 38.8391L17.413 31.5972H23.8707V51.3626H17.7589Z" fill="white"/>
<path d="M74.7952 51.3627V48.0185C74.7952 46.4501 74.8874 45.1125 75.0719 43.5903L75.3487 41.2147L68.3605 51.3396H63.6094V31.5742H69.7443V34.9184C69.7443 36.4867 69.652 37.8244 69.4675 39.3466L69.1907 41.7913L76.179 31.5742H80.9301V51.3396H74.7952V51.3627ZM77.286 29.0141C76.6403 29.3831 74.9797 30.4902 72.2351 30.4902C69.5136 30.4902 67.83 29.3831 67.1842 29.0141L68.545 25.6699C69.3753 26.0389 70.6437 26.7308 72.2121 26.7308C73.7804 26.7308 75.0489 26.0389 75.8792 25.6699L77.286 29.0141Z" fill="white"/>
<path d="M35 41.5145C35 34.2264 36.7989 31.2974 42.6571 31.2974C48.5152 31.2974 50.3372 34.2264 50.3372 41.5145C50.3372 48.7795 48.4921 51.6855 42.6571 51.6855C36.822 51.6855 35 48.8026 35 41.5145ZM44.1101 41.5145C44.1101 38.6546 43.9947 37.0632 42.6571 37.0632C41.3194 37.0632 41.2271 38.6546 41.2271 41.5145C41.2271 44.3744 41.3194 45.9196 42.6571 45.9196C43.9947 45.9196 44.1101 44.3744 44.1101 41.5145Z" fill="white"/>
<path d="M37.3755 71.5383C38.5748 72.0918 40.1662 72.4608 40.9734 72.5069C43.2106 72.6684 44.5021 71.2615 44.5021 70.8463C44.5021 70.339 42.5417 71.4229 41.8037 71.4229C38.1366 71.4229 35 70.3159 35 65.0113C35 59.7759 38.0674 58 42.265 58C47.3851 58 50.2449 60.6523 50.2449 68.0326C50.2449 76.174 46.7623 78.3881 41.5039 78.3881C37.929 78.3881 36.1762 77.3503 35.2306 76.7506L37.3755 71.5383ZM42.0113 63.466C41.2271 63.466 40.6275 63.5122 40.6275 64.8498C40.6275 66.1875 41.2502 66.2336 42.0113 66.2336C42.7724 66.2336 43.3951 66.1875 43.3951 64.8498C43.3951 63.5122 42.7724 63.466 42.0113 63.466Z" fill="url(#paint0_linear)"/>
<path d="M41.0906 24.7885V10.8351H38V7.9291L42.4744 5H47.1793V24.7655H41.0906V24.7885Z" fill="url(#paint1_linear)"/>
<path d="M118.639 49.8175C117.716 50.4402 115.225 51.6626 112.204 51.6626C105.977 51.6626 102.563 48.6874 102.563 41.4685C102.563 34.2496 105.954 31.2744 112.204 31.2744C115.318 31.2744 117.762 32.5198 118.639 33.1195L116.517 38.3318C115.064 37.6861 113.011 37.3632 112.043 37.3632C109.921 37.3862 108.675 37.7553 108.675 41.4915C108.675 45.2048 109.921 45.5738 112.043 45.6199C113.011 45.6199 115.087 45.297 116.517 44.6512L118.639 49.8175Z" fill="white"/>
<path d="M131.993 51.3627V44.8127C130.793 45.3201 129.018 45.3662 127.818 45.3662C124.751 45.3662 121.407 44.9972 121.407 38.401V31.5742H127.542V38.4241C127.542 39.7387 128.164 39.8079 128.833 39.8079C129.779 39.8079 131.393 39.6464 132.016 39.4389V31.5973H138.151V51.3627H131.993Z" fill="white"/>
<path d="M142.025 51.3626V31.5972H155.356V37.2939H148.137V38.6777H154.803V44.236H148.137V45.6198H155.356V51.3165H142.025V51.3626Z" fill="white"/>
<path d="M162.852 51.3627V37.4323H158.423V31.5742H173.415V37.4323H168.987V51.3627H162.852Z" fill="white"/>
<path d="M187.599 51.3627V44.8127C186.399 45.3201 184.623 45.3662 183.424 45.3662C180.357 45.3662 177.012 44.9972 177.012 38.401V31.5742H183.147V38.4241C183.147 39.7387 183.77 39.8079 184.439 39.8079C185.385 39.8079 186.999 39.6464 187.622 39.4389V31.5973H193.757V51.3627H187.599Z" fill="white"/>
<path d="M208.54 51.3627V48.0185C208.54 46.4502 208.633 45.1125 208.817 43.5903L209.094 41.2148L202.106 51.3396H197.354V31.5742H203.489V34.9184C203.489 36.4867 203.397 37.8244 203.213 39.3466L202.936 41.7914L209.924 31.5742H214.675V51.3396H208.54V51.3627Z" fill="white"/>
<path d="M229.182 51.3626L225.907 44.3974H224.431V51.3626H218.296V31.5972H224.431V38.5624H225.907L229.182 31.5972H235.709L231.027 41.5145L235.709 51.3626H229.182Z" fill="white"/>
<path d="M56.6214 0V82.8211M29.1527 0V82.8211" stroke="url(#paint2_linear)" stroke-width="3" stroke-miterlimit="10"/>
<path d="M70.5269 76.2708C70.204 76.7782 69.7889 77.1933 69.2584 77.4701C68.728 77.7469 68.1514 77.9083 67.5286 77.9083H63.4464V66.6533H67.298C67.8285 66.6533 68.2897 66.7686 68.751 66.9762C69.1892 67.1838 69.5813 67.4836 69.8811 67.8757C70.3193 68.4062 70.5269 69.0289 70.5269 69.7208C70.5269 70.1129 70.4577 70.5049 70.2963 70.8739C70.1348 71.243 69.9273 71.5889 69.6274 71.8657C70.0426 72.1655 70.3885 72.5345 70.6192 73.0189C70.8498 73.5032 70.9882 74.0106 71.0112 74.541C71.0112 75.2099 70.8498 75.7634 70.5269 76.2708ZM65.3146 68.3139V71.2199H67.0904C67.1827 71.2199 67.298 71.2199 67.4133 71.1968C67.5286 71.1738 67.6209 71.1507 67.7132 71.1276C67.9899 71.0123 68.1975 70.8278 68.3359 70.5741C68.4743 70.3204 68.5434 70.0667 68.5434 69.79C68.5434 69.5132 68.4743 69.2364 68.3359 68.9827C68.1975 68.729 67.9899 68.5445 67.7132 68.4292C67.5978 68.3831 67.4825 68.337 67.3672 68.337C67.2519 68.337 67.1366 68.3139 67.0213 68.3139C66.9059 68.3139 66.8137 68.3139 66.7445 68.3139H65.3146ZM68.7741 75.4866C68.9355 75.1868 69.0278 74.887 69.0278 74.541C69.0278 74.1951 68.9355 73.8722 68.7741 73.5954C68.6126 73.3187 68.3589 73.088 68.013 72.9727C67.8746 72.9266 67.7132 72.8805 67.5286 72.8805C67.3672 72.8574 67.0904 72.8574 66.6984 72.8574H65.2684V76.2708H66.6984C67.0443 76.2708 67.3211 76.2708 67.5286 76.2477C67.7362 76.2247 67.8746 76.2016 67.9899 76.1555C68.3589 76.0171 68.6126 75.7865 68.7741 75.4866Z" fill="white"/>
<path d="M76.2003 66.6763H80.3979C81.4357 66.6763 82.243 67.0222 82.8195 67.7141C83.3961 68.406 83.696 69.2824 83.696 70.3895C83.696 71.1275 83.5576 71.7733 83.3039 72.3499C83.0502 72.9265 82.6581 73.3878 82.1738 73.7106C81.6894 74.0335 81.0898 74.195 80.4209 74.195H78.0685V77.9543H76.2003V66.6763ZM79.9597 72.5344C80.5593 72.5344 81.0206 72.3499 81.3435 71.9809C81.6664 71.6119 81.8278 71.0814 81.8278 70.4126C81.8278 69.7437 81.6664 69.2363 81.3435 68.8673C81.0206 68.4983 80.5593 68.3138 79.9597 68.3138H78.0685V72.5344H79.9597Z" fill="white"/>
<path d="M95.5739 68.5445H90.7306V71.3583H94.6283V73.2264H90.7306V76.0402H95.5739V77.9314H89.785V77.9083H88.8394V66.6533H95.5508V68.5445H95.5739Z" fill="white"/>
<path d="M109.712 66.6763H111.857V77.9313H109.989V70.6893L106.76 77.9313H106.183L102.954 70.6663V77.9313H101.086V66.6763H103.231L106.483 73.9643L109.712 66.6763Z" fill="white"/>
<path d="M122.489 74.1719H120.667L118.845 77.9313H116.861L118.822 73.9182C118.199 73.6645 117.715 73.2263 117.369 72.5805C117.023 71.9348 116.861 71.2198 116.861 70.3895C116.861 69.3055 117.161 68.406 117.738 67.7141C118.314 67.0222 119.121 66.6763 120.159 66.6763H124.288V77.9313H122.489V74.1719ZM120.597 68.3138C119.998 68.3138 119.537 68.4983 119.214 68.8673C118.891 69.2363 118.729 69.7437 118.729 70.4126C118.729 71.0814 118.891 71.6119 119.214 71.9809C119.537 72.3499 119.998 72.5344 120.597 72.5344H122.489V68.3138H120.597Z" fill="white"/>
<path d="M145.553 66.6763V77.9313H143.685V68.2907H139.003V77.9313H137.135V66.6763H145.553Z" fill="white"/>
<path d="M159.206 76.5935C158.745 77.1009 158.215 77.493 157.592 77.7467C156.969 78.0234 156.346 78.1387 155.678 78.1387C155.009 78.1387 154.363 78.0004 153.74 77.7467C153.117 77.4699 152.587 77.1009 152.149 76.5935C151.711 76.0861 151.365 75.4403 151.111 74.6792C150.857 73.9181 150.742 73.134 150.742 72.2806C150.742 71.4503 150.857 70.6431 151.111 69.882C151.365 69.1209 151.711 68.4751 152.195 67.9677C152.656 67.4373 153.21 67.0452 153.809 66.7915C154.409 66.5147 155.032 66.3994 155.678 66.3994C156.323 66.3994 156.969 66.5378 157.569 66.8146C158.168 67.0913 158.699 67.4834 159.183 67.9908C159.644 68.5213 160.013 69.144 160.244 69.9051C160.498 70.6662 160.613 71.4734 160.613 72.3037C160.613 73.134 160.498 73.9412 160.244 74.6792C160.013 75.4634 159.668 76.0861 159.206 76.5935ZM153.51 75.325C153.763 75.6709 154.086 75.9246 154.478 76.1092C154.847 76.2937 155.262 76.3859 155.678 76.3859C156.093 76.3859 156.485 76.2937 156.877 76.1092C157.246 75.9246 157.592 75.6479 157.846 75.3019C158.099 74.956 158.307 74.4947 158.445 73.9642C158.584 73.4338 158.653 72.8572 158.653 72.2806C158.653 71.681 158.584 71.1274 158.445 70.597C158.307 70.0665 158.099 69.6283 157.846 69.2824C157.569 68.9364 157.246 68.6596 156.877 68.4751C156.508 68.2906 156.093 68.1984 155.678 68.1984C155.262 68.1984 154.87 68.2906 154.501 68.4751C154.132 68.6596 153.809 68.9133 153.533 69.2593C153.279 69.6052 153.071 70.0665 152.933 70.597C152.795 71.1274 152.725 71.704 152.725 72.2806C152.725 72.8572 152.795 73.4338 152.933 73.9642C153.048 74.5178 153.256 74.979 153.51 75.325Z" fill="white"/>
<path d="M172.86 76.2708C172.537 76.7782 172.122 77.1933 171.591 77.4701C171.061 77.7469 170.484 77.9083 169.862 77.9083H165.779V66.6533H169.631C170.161 66.6533 170.623 66.7686 171.084 66.9762C171.522 67.1838 171.914 67.4836 172.214 67.8757C172.652 68.4062 172.86 69.0289 172.86 69.7208C172.86 70.1129 172.791 70.5049 172.629 70.8739C172.468 71.243 172.26 71.5889 171.96 71.8657C172.375 72.1655 172.721 72.5345 172.952 73.0189C173.183 73.5032 173.321 74.0106 173.344 74.541C173.344 75.2099 173.183 75.7634 172.86 76.2708ZM167.624 68.3139V71.2199H169.4C169.493 71.2199 169.608 71.2199 169.723 71.1968C169.838 71.1738 169.931 71.1507 170.023 71.1276C170.3 71.0123 170.507 70.8278 170.646 70.5741C170.784 70.3204 170.853 70.0667 170.853 69.79C170.853 69.5132 170.784 69.2364 170.646 68.9827C170.507 68.729 170.3 68.5445 170.023 68.4292C169.908 68.3831 169.792 68.337 169.677 68.337C169.562 68.337 169.446 68.3139 169.331 68.3139C169.216 68.3139 169.124 68.3139 169.054 68.3139H167.624ZM171.107 75.4866C171.268 75.1868 171.361 74.887 171.361 74.541C171.361 74.1951 171.268 73.8722 171.107 73.5954C170.946 73.3187 170.692 73.088 170.346 72.9727C170.207 72.9266 170.046 72.8805 169.862 72.8805C169.677 72.8805 169.423 72.8574 169.031 72.8574H167.601V76.2708H169.031C169.377 76.2708 169.654 76.2708 169.862 76.2477C170.069 76.2247 170.207 76.2016 170.323 76.1555C170.692 76.0171 170.946 75.7865 171.107 75.4866Z" fill="white"/>
<path d="M185.245 68.5445H180.401V71.3583H184.299V73.2264H180.401V76.0402H185.245V77.9314H179.456V77.9083H178.51V66.6533H185.222V68.5445H185.245Z" fill="white"/>
<path d="M190.711 66.6763H194.908C195.946 66.6763 196.753 67.0222 197.33 67.7141C197.906 68.406 198.206 69.2824 198.206 70.3895C198.206 71.1275 198.068 71.7733 197.814 72.3499C197.56 72.9265 197.168 73.3878 196.684 73.7106C196.2 74.0335 195.6 74.195 194.931 74.195H192.579V77.9543H190.711V66.6763ZM194.493 72.5344C195.093 72.5344 195.554 72.3499 195.877 71.9809C196.2 71.6119 196.361 71.0814 196.361 70.4126C196.361 69.7437 196.2 69.2363 195.877 68.8673C195.554 68.4983 195.093 68.3138 194.493 68.3138H192.602V72.5344H194.493Z" fill="white"/>
<path d="M205.264 66.6763V74.7254L209.646 66.6763H211.814V77.9313H209.923V69.8821L205.495 77.9313H203.373V66.6763H205.264Z" fill="white"/>
<path d="M224.96 66.6763V68.5675H221.685V77.9313H219.817V68.5675H216.542V66.6763H224.96Z" fill="white"/>
<path d="M235.316 71.658C235.823 71.9578 236.238 72.373 236.538 72.8804C236.838 73.3877 236.999 73.9643 236.999 74.564C236.999 75.1867 236.838 75.7402 236.538 76.2476C236.238 76.755 235.823 77.1702 235.316 77.47C234.808 77.7698 234.232 77.9313 233.632 77.9313H229.504V66.6763H231.372V71.1967H233.632C234.255 71.1967 234.808 71.3582 235.316 71.658ZM234.762 75.671C235.085 75.3481 235.223 74.9791 235.223 74.564C235.223 74.1258 235.062 73.7568 234.762 73.4569C234.439 73.1571 234.07 72.9957 233.655 72.9957H231.395V76.1554H233.655C234.07 76.1323 234.439 75.9709 234.762 75.671Z" fill="white"/>
<defs>
<linearGradient id="paint0_linear" x1="42.6429" y1="78.3882" x2="42.6429" y2="58.0059" gradientUnits="userSpaceOnUse">
<stop stop-color="white" stop-opacity="0"/>
<stop offset="1" stop-color="white"/>
</linearGradient>
<linearGradient id="paint1_linear" x1="42.5948" y1="5.0269" x2="42.5948" y2="24.7966" gradientUnits="userSpaceOnUse">
<stop stop-color="white" stop-opacity="0"/>
<stop offset="1" stop-color="white"/>
</linearGradient>
<linearGradient id="paint2_linear" x1="42.8879" y1="83.4084" x2="42.8879" y2="-0.565839" gradientUnits="userSpaceOnUse">
<stop stop-color="white" stop-opacity="0"/>
<stop offset="0.5238" stop-color="white"/>
<stop offset="1" stop-color="white" stop-opacity="0"/>
</linearGradient>
</defs>
</svg>
