<svg width="189" height="69" viewBox="0 0 189 69" fill="none" xmlns="http://www.w3.org/2000/svg">
<path d="M14.1608 41.9558V39.5099C14.1608 37.9467 14.2895 36.641 14.5653 35.1145L14.8228 33.7352H14.7309L11.2918 41.9558H7.74244L4.3034 33.7352H4.21145L4.46891 35.1145C4.72638 36.641 4.87351 37.9651 4.87351 39.5099V41.9558H0V26.1951H5.14937L8.0183 31.9697C8.69875 33.3674 9.10334 34.6364 9.32403 36.1628L9.52633 37.4501L9.72862 36.1628C9.94931 34.6364 10.3539 33.3674 11.0344 31.9697L13.9033 26.1951H19.0527V41.9558H14.1608Z" fill="black"/>
<path d="M59.6406 41.9558V39.2892C59.6406 38.0386 59.7141 36.972 59.8613 35.7582L60.0819 33.864L54.5096 41.9374H50.7211V26.1767H55.5946V28.8433C55.5946 30.0939 55.5211 31.1605 55.3739 32.3743L55.1533 34.3237L60.7256 26.1767H64.5141V41.9374H59.6406V41.9558ZM61.6451 24.117C61.1302 24.4112 59.8061 25.2939 57.6176 25.2939C55.4475 25.2939 54.105 24.4112 53.5901 24.117L54.6751 21.4503C55.3372 21.7446 56.3486 22.2963 57.5992 22.2963C58.8498 22.2963 59.8613 21.7446 60.5233 21.4503L61.6451 24.117Z" fill="black"/>
<path d="M94.6012 40.7053C93.8656 41.2018 91.8794 42.1765 89.4702 42.1765C84.5048 42.1765 81.783 39.8041 81.783 34.0479C81.783 28.2916 84.4864 25.9193 89.4702 25.9193C91.953 25.9193 93.9024 26.9123 94.6012 27.3905L92.9093 31.5468C91.7507 31.0318 90.1139 30.7744 89.3415 30.7744C87.6496 30.7928 86.6565 31.087 86.6565 34.0663C86.6565 37.0272 87.6496 37.3214 89.3415 37.3582C90.1139 37.3582 91.7691 37.1007 92.9093 36.5858L94.6012 40.7053Z" fill="black"/>
<path d="M105.249 41.9559V36.7329C104.293 37.1375 102.877 37.1743 101.921 37.1743C99.4748 37.1743 96.8082 36.8801 96.8082 31.6203V26.1767H101.7V31.6203C101.7 32.6686 102.197 32.7238 102.73 32.7238C103.484 32.7238 104.771 32.595 105.268 32.4295V26.1767H110.16V41.9375H105.249V41.9559Z" fill="black"/>
<path d="M113.249 41.9559V26.1951H123.879V30.7376H118.122V31.841H123.437V36.2732H118.122V37.3766H123.879V41.9191H113.249V41.9559Z" fill="black"/>
<path d="M129.856 41.9559V30.8479H126.325V26.1767H138.279V30.8479H134.748V41.9559H129.856Z" fill="black"/>
<path d="M149.589 41.9559V36.7329C148.633 37.1375 147.217 37.1743 146.26 37.1743C143.814 37.1743 141.148 36.8801 141.148 31.6203V26.1767H146.04V31.6203C146.04 32.6686 146.536 32.7238 147.069 32.7238C147.823 32.7238 149.111 32.595 149.607 32.4295V26.1767H154.499V41.9375H149.589V41.9559Z" fill="black"/>
<path d="M166.288 41.9559V39.2892C166.288 38.0387 166.361 36.972 166.508 35.7582L166.729 33.864L161.157 41.9559H157.368V26.1951H162.26V28.8618C162.26 30.1123 162.186 31.179 162.039 32.3928L161.819 34.3422L167.391 26.1951H171.179V41.9559H166.288Z" fill="black"/>
<path d="M182.747 41.9559L180.136 36.4019H178.959V41.9559H174.067V26.1951H178.959V31.7491H180.136L182.747 26.1951H187.952L184.219 34.1031L187.952 41.9559H182.747Z" fill="black"/>
<path d="M45.1489 1H23.2457V67.0406H45.1489V1Z" stroke="url(#paint0_linear)" stroke-width="2" stroke-miterlimit="10"/>
<path d="M56.2571 61.8177C55.9996 62.2223 55.6686 62.5533 55.2456 62.774C54.8226 62.9947 54.3628 63.1234 53.8663 63.1234H50.6111V54.1488H53.6824C54.1054 54.1488 54.4732 54.2408 54.841 54.4063C55.1904 54.5718 55.503 54.8109 55.7421 55.1235C56.0915 55.5465 56.2571 56.043 56.2571 56.5948C56.2571 56.9074 56.2019 57.22 56.0732 57.5143C55.9444 57.8085 55.7789 58.0844 55.5398 58.3051C55.8709 58.5442 56.1467 58.8384 56.3306 59.2246C56.5145 59.6108 56.6249 60.0154 56.6433 60.4384C56.6249 60.9533 56.4961 61.4131 56.2571 61.8177ZM52.0824 55.4729V57.7901H53.4985C53.572 57.7901 53.664 57.7901 53.7559 57.7718C53.8479 57.7534 53.9215 57.735 53.995 57.7166C54.2157 57.6246 54.3812 57.4775 54.4916 57.2752C54.6019 57.0729 54.6571 56.8706 54.6571 56.6499C54.6571 56.4292 54.6019 56.2086 54.4916 56.0063C54.3812 55.804 54.2157 55.6568 53.995 55.5649C53.9031 55.5281 53.8111 55.4913 53.7192 55.4913C53.6272 55.4913 53.5352 55.4729 53.4433 55.4729C53.3513 55.4729 53.2778 55.4729 53.2226 55.4729H52.0824V55.4729ZM54.8594 61.1924C54.9881 60.9533 55.0617 60.7142 55.0617 60.4384C55.0617 60.1625 54.9881 59.9051 54.8594 59.6844C54.7306 59.4637 54.5283 59.2798 54.2525 59.1878C54.1421 59.151 54.0134 59.1143 53.8663 59.1143C53.7375 59.0959 53.5169 59.0959 53.2042 59.0959H52.064V61.8177H53.2042C53.4801 61.8177 53.7008 61.8177 53.8663 61.7993C54.0318 61.7809 54.1421 61.7625 54.2341 61.7257C54.51 61.597 54.7122 61.4315 54.8594 61.1924Z" fill="#C62300"/>
<path d="M60.7625 54.1488H64.1096C64.9372 54.1488 65.5808 54.4247 66.0406 54.9764C66.5004 55.5281 66.7395 56.2269 66.7395 57.1097C66.7395 57.6982 66.6291 58.2131 66.4268 58.6729C66.2245 59.1327 65.9119 59.5005 65.5257 59.7579C65.1395 60.0154 64.6613 60.1441 64.128 60.1441H62.2522V63.1418H60.7625V54.1488ZM63.7602 58.8384C64.2383 58.8384 64.6061 58.6913 64.8636 58.397C65.1211 58.1028 65.2498 57.6798 65.2498 57.1465C65.2498 56.6131 65.1211 56.2086 64.8636 55.9143C64.6061 55.6201 64.2383 55.4729 63.7602 55.4729H62.2522V58.8384H63.7602V58.8384Z" fill="#C62300"/>
<path d="M76.2291 55.6568H72.367V57.9005H75.475V59.3901H72.367V61.6338H76.2291V63.1418H71.613V63.1234H70.859V54.1488H76.2107V55.6568H76.2291Z" fill="#C62300"/>
<path d="M87.484 54.1488H89.1944V63.1234H87.7047V57.3488L85.13 63.1234H84.6703L82.0956 57.3304V63.1234H80.606V54.1488H82.3163L84.9094 59.9602L87.484 54.1488Z" fill="#C62300"/>
<path d="M97.6724 60.1257H96.2379L94.7851 63.1234H93.2035L94.7667 59.9235C94.2701 59.7212 93.8839 59.3717 93.6081 58.8568C93.3322 58.3419 93.2035 57.7718 93.2035 57.1097C93.2035 56.2453 93.4426 55.5281 93.9023 54.9764C94.3621 54.4247 95.0058 54.1488 95.8333 54.1488H99.1253V63.1234H97.6908V60.1257H97.6724ZM96.1828 55.4729C95.7046 55.4729 95.3368 55.6201 95.0793 55.9143C94.8219 56.2086 94.6931 56.6131 94.6931 57.1465C94.6931 57.6798 94.8219 58.1028 95.0793 58.397C95.3368 58.6913 95.7046 58.8384 96.1828 58.8384H97.6908V55.4729H96.1828Z" fill="#C62300"/>
<path d="M116.081 54.1488V63.1234H114.592V55.4361H110.858V63.1234H109.369V54.1488H116.081Z" fill="#C62300"/>
<path d="M126.95 62.0752C126.582 62.4798 126.16 62.7924 125.663 62.9947C125.166 63.2154 124.67 63.3073 124.137 63.3073C123.603 63.3073 123.088 63.197 122.592 62.9947C122.095 62.774 121.672 62.4798 121.323 62.0752C120.973 61.6706 120.698 61.1556 120.495 60.5488C120.293 59.9419 120.201 59.3166 120.201 58.6361C120.201 57.9741 120.293 57.3304 120.495 56.7235C120.698 56.1166 120.973 55.6017 121.36 55.1971C121.727 54.7741 122.169 54.4615 122.647 54.2592C123.125 54.0385 123.622 53.9465 124.137 53.9465C124.651 53.9465 125.166 54.0569 125.645 54.2776C126.123 54.4982 126.546 54.8109 126.932 55.2155C127.3 55.6385 127.594 56.135 127.778 56.7419C127.98 57.3488 128.072 57.9925 128.072 58.6545C128.072 59.3166 127.98 59.9603 127.778 60.5488C127.594 61.174 127.318 61.6706 126.95 62.0752ZM122.426 61.0637C122.629 61.3395 122.886 61.5418 123.199 61.689C123.493 61.8361 123.824 61.9097 124.155 61.9097C124.486 61.9097 124.799 61.8361 125.111 61.689C125.405 61.5418 125.681 61.3212 125.884 61.0453C126.086 60.7694 126.251 60.4016 126.362 59.9786C126.472 59.5557 126.527 59.0959 126.527 58.6361C126.527 58.158 126.472 57.7166 126.362 57.2936C126.251 56.8706 126.086 56.5212 125.884 56.2454C125.663 55.9695 125.405 55.7488 125.111 55.6017C124.817 55.4546 124.486 55.381 124.155 55.381C123.824 55.381 123.511 55.4546 123.217 55.6017C122.923 55.7488 122.665 55.9511 122.445 56.227C122.242 56.5028 122.077 56.8706 121.966 57.2936C121.856 57.7166 121.801 58.1764 121.801 58.6361C121.801 59.0959 121.856 59.5557 121.966 59.9786C122.058 60.42 122.206 60.7694 122.426 61.0637Z" fill="#C62300"/>
<path d="M137.838 61.8177C137.58 62.2223 137.249 62.5533 136.826 62.774C136.403 62.9947 135.943 63.1234 135.447 63.1234H132.192V54.1488H135.263C135.686 54.1488 136.054 54.2408 136.421 54.4063C136.771 54.5718 137.084 54.8109 137.323 55.1235C137.672 55.5465 137.838 56.043 137.838 56.5948C137.838 56.9074 137.782 57.22 137.654 57.5143C137.525 57.8085 137.359 58.0844 137.12 58.3051C137.451 58.5442 137.727 58.8384 137.911 59.2246C138.095 59.6108 138.205 60.0154 138.224 60.4384C138.224 60.9533 138.095 61.4131 137.838 61.8177ZM133.681 55.4729V57.7901H135.097C135.171 57.7901 135.263 57.7901 135.355 57.7718C135.447 57.7534 135.52 57.735 135.594 57.7166C135.815 57.6246 135.98 57.4775 136.09 57.2752C136.201 57.0729 136.256 56.8706 136.256 56.6499C136.256 56.4292 136.201 56.2086 136.09 56.0063C135.98 55.804 135.815 55.6568 135.594 55.5649C135.502 55.5281 135.41 55.4913 135.318 55.4913C135.226 55.4913 135.134 55.4729 135.042 55.4729C134.95 55.4729 134.877 55.4729 134.822 55.4729H133.681V55.4729ZM136.44 61.1924C136.569 60.9533 136.642 60.7142 136.642 60.4384C136.642 60.1625 136.569 59.9051 136.44 59.6844C136.311 59.4637 136.109 59.2798 135.833 59.1878C135.723 59.151 135.594 59.1143 135.447 59.1143C135.318 59.0959 135.097 59.0959 134.785 59.0959H133.645V61.8177H134.785C135.061 61.8177 135.281 61.8177 135.447 61.7993C135.612 61.7809 135.723 61.7625 135.815 61.7257C136.109 61.597 136.311 61.4315 136.44 61.1924Z" fill="#C62300"/>
<path d="M147.713 55.6568H143.851V57.9005H146.959V59.3901H143.851V61.6338H147.713V63.1418H143.097V63.1234H142.343V54.1488H147.695V55.6568H147.713Z" fill="#C62300"/>
<path d="M152.09 54.1488H155.437C156.265 54.1488 156.908 54.4247 157.368 54.9764C157.828 55.5281 158.067 56.2269 158.067 57.1097C158.067 57.6982 157.957 58.2131 157.754 58.6729C157.552 59.1327 157.239 59.5005 156.853 59.7579C156.467 60.0154 155.989 60.1441 155.455 60.1441H153.58V63.1418H152.09V54.1488V54.1488ZM155.088 58.8384C155.566 58.8384 155.934 58.6913 156.191 58.397C156.449 58.1028 156.577 57.6798 156.577 57.1465C156.577 56.6131 156.449 56.2086 156.191 55.9143C155.934 55.6201 155.566 55.4729 155.088 55.4729H153.58V58.8384H155.088V58.8384Z" fill="#C62300"/>
<path d="M163.677 54.1488V60.5671L167.171 54.1488H168.899V63.1234H167.41V56.7051L163.879 63.1234H162.187V54.1488H163.677Z" fill="#C62300"/>
<path d="M179.382 54.1488V55.6568H176.771V63.1234H175.281V55.6568H172.67V54.1488H179.382Z" fill="#C62300"/>
<path d="M187.658 58.1212C188.062 58.3602 188.393 58.6913 188.633 59.0959C188.872 59.5005 189 59.9602 189 60.4384C189 60.9349 188.872 61.3763 188.633 61.7809C188.393 62.1855 188.062 62.5165 187.658 62.7556C187.253 62.9947 186.793 63.1234 186.315 63.1234H183.023V54.1488H184.513V57.7534H186.315C186.793 57.7718 187.235 57.8821 187.658 58.1212ZM187.198 61.3211C187.456 61.0637 187.566 60.7694 187.566 60.4384C187.566 60.089 187.437 59.7947 187.198 59.5556C186.941 59.3166 186.646 59.1878 186.315 59.1878H184.513V61.7073H186.315C186.646 61.7073 186.941 61.5786 187.198 61.3211Z" fill="#C62300"/>
<defs>
<linearGradient id="paint0_linear" x1="34.2032" y1="67.5025" x2="34.2032" y2="0.542424" gradientUnits="userSpaceOnUse">
<stop stop-color="white" stop-opacity="0"/>
<stop offset="0.0850862" stop-color="#F2CEC6" stop-opacity="0.1702"/>
<stop offset="0.1984" stop-color="#E39280" stop-opacity="0.3969"/>
<stop offset="0.3008" stop-color="#D66249" stop-opacity="0.6015"/>
<stop offset="0.3883" stop-color="#CD4021" stop-opacity="0.7765"/>
<stop offset="0.4576" stop-color="#C82B09" stop-opacity="0.9151"/>
<stop offset="0.5" stop-color="#C62300"/>
<stop offset="0.5627" stop-color="#C72704" stop-opacity="0.8821"/>
<stop offset="0.6296" stop-color="#CA3111" stop-opacity="0.7563"/>
<stop offset="0.6985" stop-color="#CE4327" stop-opacity="0.6267"/>
<stop offset="0.7689" stop-color="#D55D44" stop-opacity="0.4945"/>
<stop offset="0.8403" stop-color="#DE7D6B" stop-opacity="0.3603"/>
<stop offset="0.9126" stop-color="#E8A59A" stop-opacity="0.2244"/>
<stop offset="0.9843" stop-color="#F4D3D1" stop-opacity="0.0895859"/>
<stop offset="1" stop-color="#F5D2D2" stop-opacity="0"/>
</linearGradient>
</defs>
</svg>
