<svg width="189" height="69" viewBox="0 0 189 69" fill="none" xmlns="http://www.w3.org/2000/svg">
<path d="M14.1608 41.9558V39.5099C14.1608 37.9467 14.2895 36.641 14.5653 35.1145L14.8228 33.7352H14.7309L11.2918 41.9558H7.74244L4.3034 33.7352H4.21145L4.46891 35.1145C4.72638 36.641 4.87351 37.9651 4.87351 39.5099V41.9558H0V26.1951H5.14937L8.0183 31.9697C8.69875 33.3674 9.10334 34.6364 9.32403 36.1628L9.52633 37.4501L9.72862 36.1628C9.94931 34.6364 10.3539 33.3674 11.0344 31.9697L13.9033 26.1951H19.0527V41.9558H14.1608Z" fill="black"/>
<path d="M59.6406 41.9558V39.2892C59.6406 38.0386 59.7141 36.972 59.8613 35.7582L60.0819 33.864L54.5096 41.9374H50.7211V26.1767H55.5946V28.8433C55.5946 30.0939 55.5211 31.1605 55.3739 32.3743L55.1533 34.3237L60.7256 26.1767H64.5141V41.9374H59.6406V41.9558ZM61.6451 24.117C61.1302 24.4112 59.8061 25.2939 57.6176 25.2939C55.4475 25.2939 54.105 24.4112 53.5901 24.117L54.6751 21.4503C55.3372 21.7446 56.3486 22.2963 57.5992 22.2963C58.8498 22.2963 59.8613 21.7446 60.5233 21.4503L61.6451 24.117Z" fill="black"/>
<path d="M94.6012 40.7053C93.8656 41.2018 91.8794 42.1765 89.4702 42.1765C84.5048 42.1765 81.783 39.8041 81.783 34.0479C81.783 28.2916 84.4864 25.9193 89.4702 25.9193C91.953 25.9193 93.9024 26.9123 94.6012 27.3905L92.9093 31.5468C91.7507 31.0318 90.1139 30.7744 89.3415 30.7744C87.6496 30.7928 86.6565 31.087 86.6565 34.0663C86.6565 37.0272 87.6496 37.3214 89.3415 37.3582C90.1139 37.3582 91.7691 37.1007 92.9093 36.5858L94.6012 40.7053Z" fill="black"/>
<path d="M105.249 41.9559V36.7329C104.293 37.1375 102.877 37.1743 101.921 37.1743C99.4748 37.1743 96.8082 36.8801 96.8082 31.6203V26.1767H101.7V31.6203C101.7 32.6686 102.197 32.7238 102.73 32.7238C103.484 32.7238 104.771 32.595 105.268 32.4295V26.1767H110.16V41.9375H105.249V41.9559Z" fill="black"/>
<path d="M113.249 41.9559V26.1951H123.879V30.7376H118.122V31.841H123.437V36.2732H118.122V37.3766H123.879V41.9191H113.249V41.9559Z" fill="black"/>
<path d="M129.856 41.9559V30.8479H126.325V26.1767H138.279V30.8479H134.748V41.9559H129.856Z" fill="black"/>
<path d="M149.589 41.9559V36.7329C148.633 37.1375 147.217 37.1743 146.26 37.1743C143.814 37.1743 141.148 36.8801 141.148 31.6203V26.1767H146.04V31.6203C146.04 32.6686 146.536 32.7238 147.069 32.7238C147.823 32.7238 149.111 32.595 149.607 32.4295V26.1767H154.499V41.9375H149.589V41.9559Z" fill="black"/>
<path d="M166.288 41.9559V39.2892C166.288 38.0387 166.361 36.972 166.508 35.7582L166.729 33.864L161.157 41.9559H157.368V26.1951H162.26V28.8618C162.26 30.1123 162.186 31.179 162.039 32.3928L161.819 34.3422L167.391 26.1951H171.179V41.9559H166.288Z" fill="black"/>
<path d="M182.747 41.9559L180.136 36.4019H178.959V41.9559H174.067V26.1951H178.959V31.7491H180.136L182.747 26.1951H187.952L184.219 34.1031L187.952 41.9559H182.747Z" fill="black"/>
<path d="M45.1489 1H23.2457V67.0406H45.1489V1Z" stroke="url(#paint0_linear)" stroke-width="2" stroke-miterlimit="10"/>

<defs>
<linearGradient id="paint0_linear" x1="34.2032" y1="67.5025" x2="34.2032" y2="0.542424" gradientUnits="userSpaceOnUse">
<stop stop-color="white" stop-opacity="0"/>
<stop offset="0.0850862" stop-color="#F2CEC6" stop-opacity="0.1702"/>
<stop offset="0.1984" stop-color="#E39280" stop-opacity="0.3969"/>
<stop offset="0.3008" stop-color="#D66249" stop-opacity="0.6015"/>
<stop offset="0.3883" stop-color="#CD4021" stop-opacity="0.7765"/>
<stop offset="0.4576" stop-color="#C82B09" stop-opacity="0.9151"/>
<stop offset="0.5" stop-color="#C62300"/>
<stop offset="0.5627" stop-color="#C72704" stop-opacity="0.8821"/>
<stop offset="0.6296" stop-color="#CA3111" stop-opacity="0.7563"/>
<stop offset="0.6985" stop-color="#CE4327" stop-opacity="0.6267"/>
<stop offset="0.7689" stop-color="#D55D44" stop-opacity="0.4945"/>
<stop offset="0.8403" stop-color="#DE7D6B" stop-opacity="0.3603"/>
<stop offset="0.9126" stop-color="#E8A59A" stop-opacity="0.2244"/>
<stop offset="0.9843" stop-color="#F4D3D1" stop-opacity="0.0895859"/>
<stop offset="1" stop-color="#F5D2D2" stop-opacity="0"/>
</linearGradient>
</defs>
</svg>
