<svg width="189" height="69" viewBox="0 0 189 69" fill="none" xmlns="http://www.w3.org/2000/svg">
<path d="M14.1608 41.9558V39.5099C14.1608 37.9467 14.2895 36.6409 14.5653 35.1145L14.8228 33.7352H14.7309L11.2918 41.9558H7.74244L4.3034 33.7352H4.21144L4.46891 35.1145C4.72638 36.6409 4.87351 37.965 4.87351 39.5099V41.9558H0V26.1951H5.14937L8.0183 31.9697C8.69875 33.3674 9.10334 34.6363 9.32403 36.1628L9.52633 37.4501L9.72862 36.1628C9.94931 34.6363 10.3539 33.3674 11.0344 31.9697L13.9033 26.1951H19.0527V41.9558H14.1608Z" fill="black"/>
<path d="M59.6406 41.9557V39.2891C59.6406 38.0385 59.7141 36.9719 59.8613 35.7581L60.0819 33.8638L54.5096 41.9373H50.7211V26.1766H55.5946V28.8432C55.5946 30.0938 55.5211 31.1604 55.3739 32.3742L55.1533 34.3236L60.7256 26.1766H64.5141V41.9373H59.6406V41.9557ZM61.6451 24.1168C61.1302 24.4111 59.8061 25.2938 57.6176 25.2938C55.4475 25.2938 54.105 24.4111 53.5901 24.1168L54.6751 21.4502C55.3372 21.7444 56.3486 22.2962 57.5992 22.2962C58.8498 22.2962 59.8613 21.7444 60.5233 21.4502L61.6451 24.1168Z" fill="black"/>
<path d="M94.6012 40.7052C93.8656 41.2018 91.8794 42.1765 89.4702 42.1765C84.5048 42.1765 81.783 39.8041 81.783 34.0478C81.783 28.2916 84.4864 25.9192 89.4702 25.9192C91.953 25.9192 93.9024 26.9123 94.6012 27.3904L92.9093 31.5467C91.7507 31.0318 90.1139 30.7743 89.3415 30.7743C87.6496 30.7927 86.6565 31.0869 86.6565 34.0662C86.6565 37.0271 87.6496 37.3214 89.3415 37.3581C90.1139 37.3581 91.7691 37.1007 92.9093 36.5857L94.6012 40.7052Z" fill="black"/>
<path d="M105.249 41.9559V36.733C104.293 37.1376 102.877 37.1743 101.921 37.1743C99.4748 37.1743 96.8082 36.8801 96.8082 31.6204V26.1768H101.7V31.6204C101.7 32.6686 102.197 32.7238 102.73 32.7238C103.484 32.7238 104.771 32.5951 105.268 32.4296V26.1768H110.16V41.9375H105.249V41.9559Z" fill="black"/>
<path d="M113.249 41.9558V26.1951H123.879V30.7375H118.122V31.841H123.437V36.2731H118.122V37.3765H123.879V41.919H113.249V41.9558Z" fill="black"/>
<path d="M129.856 41.9559V30.848H126.325V26.1768H138.279V30.848H134.748V41.9559H129.856Z" fill="black"/>
<path d="M149.589 41.9559V36.733C148.633 37.1376 147.217 37.1743 146.26 37.1743C143.814 37.1743 141.148 36.8801 141.148 31.6204V26.1768H146.04V31.6204C146.04 32.6686 146.536 32.7238 147.069 32.7238C147.823 32.7238 149.111 32.5951 149.607 32.4296V26.1768H154.499V41.9375H149.589V41.9559Z" fill="black"/>
<path d="M166.288 41.9558V39.2892C166.288 38.0386 166.361 36.972 166.508 35.7582L166.729 33.8639L161.157 41.9558H157.368V26.1951H162.26V28.8617C162.26 30.1123 162.186 31.1789 162.039 32.3927L161.819 34.3421L167.391 26.1951H171.179V41.9558H166.288Z" fill="black"/>
<path d="M182.747 41.9558L180.136 36.4018H178.959V41.9558H174.067V26.1951H178.959V31.749H180.136L182.747 26.1951H187.952L184.219 34.103L187.952 41.9558H182.747Z" fill="black"/>
<path d="M28.2296 34.0848C28.2296 28.2733 29.664 25.9377 34.3352 25.9377C39.0064 25.9377 40.4593 28.2733 40.4593 34.0848C40.4593 39.8778 38.988 42.195 34.3352 42.195C29.6824 42.195 28.2296 39.9146 28.2296 34.0848ZM35.4938 34.0848C35.4938 31.8043 35.4019 30.5354 34.3352 30.5354C33.2686 30.5354 33.195 31.8043 33.195 34.0848C33.195 36.3652 33.2686 37.5974 34.3352 37.5974C35.4019 37.5974 35.4938 36.3836 35.4938 34.0848Z" fill="#C62300"/>
<path d="M30.1425 15.5838C31.0988 16.0252 32.3678 16.3195 33.0114 16.3563C34.7953 16.485 35.8252 15.3632 35.8252 15.0321C35.8252 14.6275 34.262 15.4919 33.6735 15.4919C30.7494 15.4919 28.2483 14.6091 28.2483 10.3793C28.2483 6.20465 30.6942 4.78857 34.0413 4.78857C38.124 4.78857 40.4044 6.90349 40.4044 12.7885C40.4044 19.2804 37.6275 21.0459 33.4344 21.0459C30.5839 21.0459 29.1862 20.2183 28.4322 19.7401L30.1425 15.5838ZM33.839 9.14714C33.2137 9.14714 32.7356 9.18392 32.7356 10.2506C32.7356 11.3172 33.2321 11.354 33.839 11.354C34.4459 11.354 34.9424 11.3172 34.9424 10.2506C34.9424 9.18392 34.4643 9.14714 33.839 9.14714Z" fill="url(#paint0_linear)"/>
<path d="M32.6434 63.1234V51.9971H30.179V49.6798L33.7468 47.3442H37.4985V63.105H32.6434V63.1234Z" fill="url(#paint1_linear)"/>
<path d="M45.1489 1H23.2457V67.0406H45.1489V1Z" stroke="url(#paint2_linear)" stroke-width="2" stroke-miterlimit="10"/>
<path d="M56.2571 61.8178C55.9996 62.2224 55.6686 62.5534 55.2456 62.7741C54.8226 62.9948 54.3628 63.1235 53.8663 63.1235H50.6111V54.1489H53.6824C54.1054 54.1489 54.4732 54.2409 54.841 54.4064C55.1904 54.5719 55.503 54.811 55.7421 55.1236C56.0915 55.5466 56.2571 56.0432 56.2571 56.5949C56.2571 56.9075 56.2019 57.2202 56.0732 57.5144C55.9444 57.8087 55.7789 58.0845 55.5398 58.3052C55.8709 58.5443 56.1467 58.8385 56.3306 59.2247C56.5145 59.6109 56.6249 60.0155 56.6433 60.4385C56.6249 60.9534 56.4961 61.4132 56.2571 61.8178ZM52.0824 55.4731V57.7903H53.4985C53.572 57.7903 53.664 57.7903 53.7559 57.7719C53.8479 57.7535 53.9215 57.7351 53.995 57.7167C54.2157 57.6248 54.3812 57.4776 54.4916 57.2753C54.6019 57.073 54.6571 56.8707 54.6571 56.65C54.6571 56.4294 54.6019 56.2087 54.4916 56.0064C54.3812 55.8041 54.2157 55.657 53.995 55.565C53.9031 55.5282 53.8111 55.4914 53.7192 55.4914C53.6272 55.4914 53.5352 55.4731 53.4433 55.4731C53.3513 55.4731 53.2778 55.4731 53.2226 55.4731H52.0824ZM54.8594 61.1925C54.9881 60.9534 55.0617 60.7144 55.0617 60.4385C55.0617 60.1627 54.9881 59.9052 54.8594 59.6845C54.7306 59.4638 54.5283 59.2799 54.2525 59.188C54.1421 59.1512 54.0134 59.1144 53.8663 59.1144C53.7375 59.096 53.5169 59.096 53.2042 59.096H52.064V61.8178H53.2042C53.4801 61.8178 53.7008 61.8178 53.8663 61.7994C54.0318 61.781 54.1421 61.7626 54.2341 61.7259C54.51 61.5971 54.7122 61.4316 54.8594 61.1925Z" fill="#C62300"/>
<path d="M60.7625 54.1489H64.1096C64.9372 54.1489 65.5808 54.4248 66.0406 54.9765C66.5004 55.5282 66.7395 56.2271 66.7395 57.1098C66.7395 57.6983 66.6291 58.2132 66.4268 58.673C66.2245 59.1328 65.9119 59.5006 65.5257 59.7581C65.1395 60.0155 64.6613 60.1443 64.128 60.1443H62.2522V63.1419H60.7625V54.1489ZM63.7602 58.8385C64.2383 58.8385 64.6061 58.6914 64.8636 58.3972C65.1211 58.1029 65.2498 57.6799 65.2498 57.1466C65.2498 56.6133 65.1211 56.2087 64.8636 55.9144C64.6061 55.6202 64.2383 55.4731 63.7602 55.4731H62.2522V58.8385H63.7602Z" fill="#C62300"/>
<path d="M76.2291 55.657H72.367V57.9006H75.475V59.3902H72.367V61.6339H76.2291V63.1419H71.613V63.1235H70.859V54.1489H76.2107V55.657H76.2291Z" fill="#C62300"/>
<path d="M87.484 54.1489H89.1944V63.1235H87.7047V57.3489L85.13 63.1235H84.6703L82.0956 57.3305V63.1235H80.606V54.1489H82.3163L84.9094 59.9604L87.484 54.1489Z" fill="#C62300"/>
<path d="M97.6724 60.1259H96.2379L94.7851 63.1235H93.2035L94.7667 59.9236C94.2701 59.7213 93.8839 59.3719 93.6081 58.8569C93.3322 58.342 93.2035 57.7719 93.2035 57.1098C93.2035 56.2455 93.4426 55.5282 93.9023 54.9765C94.3621 54.4248 95.0058 54.1489 95.8333 54.1489H99.1253V63.1235H97.6908V60.1259H97.6724ZM96.1828 55.4731C95.7046 55.4731 95.3368 55.6202 95.0793 55.9144C94.8219 56.2087 94.6931 56.6133 94.6931 57.1466C94.6931 57.6799 94.8219 58.1029 95.0793 58.3972C95.3368 58.6914 95.7046 58.8385 96.1828 58.8385H97.6908V55.4731H96.1828Z" fill="#C62300"/>
<path d="M116.081 54.1489V63.1235H114.592V55.4363H110.858V63.1235H109.369V54.1489H116.081Z" fill="#C62300"/>
<path d="M126.95 62.0752C126.582 62.4798 126.16 62.7924 125.663 62.9947C125.166 63.2154 124.67 63.3073 124.137 63.3073C123.603 63.3073 123.088 63.197 122.592 62.9947C122.095 62.774 121.672 62.4798 121.323 62.0752C120.973 61.6706 120.698 61.1556 120.495 60.5488C120.293 59.9419 120.201 59.3166 120.201 58.6361C120.201 57.9741 120.293 57.3304 120.495 56.7235C120.698 56.1166 120.973 55.6017 121.36 55.1971C121.727 54.7741 122.169 54.4615 122.647 54.2592C123.125 54.0385 123.622 53.9465 124.137 53.9465C124.651 53.9465 125.166 54.0569 125.645 54.2776C126.123 54.4982 126.546 54.8109 126.932 55.2155C127.3 55.6385 127.594 56.135 127.778 56.7419C127.98 57.3488 128.072 57.9925 128.072 58.6545C128.072 59.3166 127.98 59.9603 127.778 60.5488C127.594 61.174 127.318 61.6706 126.95 62.0752ZM122.426 61.0637C122.629 61.3395 122.886 61.5418 123.199 61.689C123.493 61.8361 123.824 61.9097 124.155 61.9097C124.486 61.9097 124.799 61.8361 125.111 61.689C125.405 61.5418 125.681 61.3212 125.884 61.0453C126.086 60.7694 126.251 60.4016 126.362 59.9786C126.472 59.5557 126.527 59.0959 126.527 58.6361C126.527 58.158 126.472 57.7166 126.362 57.2936C126.251 56.8706 126.086 56.5212 125.884 56.2454C125.663 55.9695 125.405 55.7488 125.111 55.6017C124.817 55.4546 124.486 55.381 124.155 55.381C123.824 55.381 123.511 55.4546 123.217 55.6017C122.923 55.7488 122.665 55.9511 122.445 56.227C122.242 56.5028 122.077 56.8706 121.966 57.2936C121.856 57.7166 121.801 58.1764 121.801 58.6361C121.801 59.0959 121.856 59.5557 121.966 59.9786C122.058 60.42 122.206 60.7694 122.426 61.0637Z" fill="#C62300"/>
<path d="M137.838 61.8178C137.58 62.2224 137.249 62.5534 136.826 62.7741C136.403 62.9948 135.943 63.1235 135.447 63.1235H132.192V54.1489H135.263C135.686 54.1489 136.054 54.2409 136.421 54.4064C136.771 54.5719 137.084 54.811 137.323 55.1236C137.672 55.5466 137.838 56.0432 137.838 56.5949C137.838 56.9075 137.782 57.2202 137.654 57.5144C137.525 57.8087 137.359 58.0845 137.12 58.3052C137.451 58.5443 137.727 58.8385 137.911 59.2247C138.095 59.6109 138.205 60.0155 138.224 60.4385C138.224 60.9534 138.095 61.4132 137.838 61.8178ZM133.681 55.4731V57.7903H135.097C135.171 57.7903 135.263 57.7903 135.355 57.7719C135.447 57.7535 135.52 57.7351 135.594 57.7167C135.815 57.6248 135.98 57.4776 136.09 57.2753C136.201 57.073 136.256 56.8707 136.256 56.65C136.256 56.4294 136.201 56.2087 136.09 56.0064C135.98 55.8041 135.815 55.657 135.594 55.565C135.502 55.5282 135.41 55.4914 135.318 55.4914C135.226 55.4914 135.134 55.4731 135.042 55.4731C134.95 55.4731 134.877 55.4731 134.822 55.4731H133.681ZM136.44 61.1925C136.569 60.9534 136.642 60.7144 136.642 60.4385C136.642 60.1627 136.569 59.9052 136.44 59.6845C136.311 59.4638 136.109 59.2799 135.833 59.188C135.723 59.1512 135.594 59.1144 135.447 59.1144C135.318 59.096 135.097 59.096 134.785 59.096H133.645V61.8178H134.785C135.061 61.8178 135.281 61.8178 135.447 61.7994C135.612 61.781 135.723 61.7626 135.815 61.7259C136.109 61.5971 136.311 61.4316 136.44 61.1925Z" fill="#C62300"/>
<path d="M147.713 55.657H143.851V57.9006H146.959V59.3902H143.851V61.6339H147.713V63.1419H143.097V63.1235H142.343V54.1489H147.695V55.657H147.713Z" fill="#C62300"/>
<path d="M152.09 54.1489H155.437C156.265 54.1489 156.908 54.4248 157.368 54.9765C157.828 55.5282 158.067 56.2271 158.067 57.1098C158.067 57.6983 157.957 58.2132 157.754 58.673C157.552 59.1328 157.239 59.5006 156.853 59.7581C156.467 60.0155 155.989 60.1443 155.455 60.1443H153.58V63.1419H152.09V54.1489ZM155.088 58.8385C155.566 58.8385 155.934 58.6914 156.191 58.3972C156.449 58.1029 156.577 57.6799 156.577 57.1466C156.577 56.6133 156.449 56.2087 156.191 55.9144C155.934 55.6202 155.566 55.4731 155.088 55.4731H153.58V58.8385H155.088Z" fill="#C62300"/>
<path d="M163.677 54.1489V60.5672L167.171 54.1489H168.899V63.1235H167.41V56.7052L163.879 63.1235H162.187V54.1489H163.677Z" fill="#C62300"/>
<path d="M179.382 54.1489V55.657H176.771V63.1235H175.281V55.657H172.67V54.1489H179.382Z" fill="#C62300"/>
<path d="M187.658 58.1213C188.062 58.3604 188.393 58.6914 188.633 59.096C188.872 59.5006 189 59.9604 189 60.4385C189 60.9351 188.872 61.3764 188.633 61.781C188.393 62.1856 188.062 62.5166 187.658 62.7557C187.253 62.9948 186.793 63.1235 186.315 63.1235H183.023V54.1489H184.513V57.7535H186.315C186.793 57.7719 187.235 57.8822 187.658 58.1213ZM187.198 61.3213C187.456 61.0638 187.566 60.7695 187.566 60.4385C187.566 60.0891 187.437 59.7948 187.198 59.5558C186.941 59.3167 186.646 59.188 186.315 59.188H184.513V61.7075H186.315C186.646 61.7075 186.941 61.5787 187.198 61.3213Z" fill="#C62300"/>
<defs>
<linearGradient id="paint0_linear" x1="34.3479" y1="21.0395" x2="34.3479" y2="4.78694" gradientUnits="userSpaceOnUse">
<stop stop-color="#C62300"/>
<stop offset="0.0848949" stop-color="#C82B09" stop-opacity="0.9151"/>
<stop offset="0.2235" stop-color="#CD4021" stop-opacity="0.7765"/>
<stop offset="0.3985" stop-color="#D66249" stop-opacity="0.6015"/>
<stop offset="0.6031" stop-color="#E39280" stop-opacity="0.3969"/>
<stop offset="0.8298" stop-color="#F2CEC6" stop-opacity="0.1702"/>
<stop offset="1" stop-color="white" stop-opacity="0"/>
</linearGradient>
<linearGradient id="paint1_linear" x1="33.8481" y1="47.3593" x2="33.8481" y2="63.1234" gradientUnits="userSpaceOnUse">
<stop stop-color="#C62300"/>
<stop offset="0.0848949" stop-color="#C82B09" stop-opacity="0.9151"/>
<stop offset="0.2235" stop-color="#CD4021" stop-opacity="0.7765"/>
<stop offset="0.3985" stop-color="#D66249" stop-opacity="0.6015"/>
<stop offset="0.6031" stop-color="#E39280" stop-opacity="0.3969"/>
<stop offset="0.8298" stop-color="#F2CEC6" stop-opacity="0.1702"/>
<stop offset="1" stop-color="white" stop-opacity="0"/>
</linearGradient>
<linearGradient id="paint2_linear" x1="34.2032" y1="67.5025" x2="34.2032" y2="0.542424" gradientUnits="userSpaceOnUse">
<stop stop-color="white" stop-opacity="0"/>
<stop offset="0.0850862" stop-color="#F2CEC6" stop-opacity="0.1702"/>
<stop offset="0.1984" stop-color="#E39280" stop-opacity="0.3969"/>
<stop offset="0.3008" stop-color="#D66249" stop-opacity="0.6015"/>
<stop offset="0.3883" stop-color="#CD4021" stop-opacity="0.7765"/>
<stop offset="0.4576" stop-color="#C82B09" stop-opacity="0.9151"/>
<stop offset="0.5" stop-color="#C62300"/>
<stop offset="0.5627" stop-color="#C72704" stop-opacity="0.8821"/>
<stop offset="0.6296" stop-color="#CA3111" stop-opacity="0.7563"/>
<stop offset="0.6985" stop-color="#CE4327" stop-opacity="0.6267"/>
<stop offset="0.7689" stop-color="#D55D44" stop-opacity="0.4945"/>
<stop offset="0.8403" stop-color="#DE7D6B" stop-opacity="0.3603"/>
<stop offset="0.9126" stop-color="#E8A59A" stop-opacity="0.2244"/>
<stop offset="0.9843" stop-color="#F4D3D1" stop-opacity="0.0895859"/>
<stop offset="1" stop-color="#F5D2D2" stop-opacity="0"/>
</linearGradient>
</defs>
</svg>
