<svg width="237" height="87" viewBox="0 0 237 87" fill="none" xmlns="http://www.w3.org/2000/svg">
<path d="M17.7589 53.3626V50.2952C17.7589 48.3348 17.9203 46.6972 18.2663 44.783L18.5892 43.0532H18.4739L14.161 53.3626H9.70974L5.39686 43.0532H5.28154L5.60443 44.783C5.92732 46.6972 6.11183 48.3578 6.11183 50.2952V53.3626H0V33.5972H6.45778L10.0326 40.8391C10.886 42.5919 11.3934 44.1833 11.6701 46.0976L11.9238 47.712L12.1775 46.0976C12.4543 44.1833 12.9617 42.5919 13.815 40.8391L17.413 33.5972H23.8707V53.3626H17.7589Z" fill="white"/>
<path d="M74.7952 53.3627V50.0185C74.7952 48.4501 74.8874 47.1125 75.0719 45.5903L75.3487 43.2147L68.3605 53.3396H63.6094V33.5742H69.7443V36.9184C69.7443 38.4867 69.652 39.8244 69.4675 41.3466L69.1907 43.7913L76.179 33.5742H80.9301V53.3396H74.7952V53.3627ZM77.286 31.0141C76.6403 31.3831 74.9797 32.4902 72.2351 32.4902C69.5136 32.4902 67.83 31.3831 67.1842 31.0141L68.545 27.6699C69.3753 28.0389 70.6437 28.7308 72.2121 28.7308C73.7804 28.7308 75.0489 28.0389 75.8792 27.6699L77.286 31.0141Z" fill="white"/>
<path d="M35.4025 43.5145C35.4025 36.2264 37.2014 33.2974 43.0596 33.2974C48.9177 33.2974 50.7397 36.2264 50.7397 43.5145C50.7397 50.7795 48.8946 53.6855 43.0596 53.6855C37.2245 53.6855 35.4025 50.8026 35.4025 43.5145ZM44.5126 43.5145C44.5126 40.6546 44.3972 39.0632 43.0596 39.0632C41.7219 39.0632 41.6296 40.6546 41.6296 43.5145C41.6296 46.3744 41.7219 47.9196 43.0596 47.9196C44.3972 47.9196 44.5126 46.3744 44.5126 43.5145Z" fill="white"/>
<path d="M37.8012 20.2893C39.0005 20.8428 40.5919 21.2118 41.3991 21.2579C43.6363 21.4194 44.9278 20.0125 44.9278 19.5973C44.9278 19.09 42.9674 20.1739 42.2294 20.1739C38.5623 20.1739 35.4257 19.0669 35.4257 13.7623C35.4257 8.52687 38.4931 6.75098 42.6907 6.75098C47.8108 6.75098 50.6706 9.40328 50.6706 16.7836C50.6706 24.925 47.188 27.1391 41.9296 27.1391C38.3547 27.1391 36.6019 26.1013 35.6563 25.5016L37.8012 20.2893ZM42.437 12.217C41.6528 12.217 41.0532 12.2632 41.0532 13.6008C41.0532 14.9385 41.6759 14.9846 42.437 14.9846C43.1981 14.9846 43.8208 14.9385 43.8208 13.6008C43.8208 12.2632 43.1981 12.217 42.437 12.217Z" fill="url(#paint0_linear)"/>
<path d="M40.9376 79.9081V65.9547H37.847V63.0487L42.3214 60.1196H47.0263V79.8851H40.9376V79.9081Z" fill="url(#paint1_linear)"/>
<path d="M118.639 51.8175C117.716 52.4402 115.225 53.6626 112.204 53.6626C105.977 53.6626 102.563 50.6874 102.563 43.4685C102.563 36.2496 105.954 33.2744 112.204 33.2744C115.318 33.2744 117.762 34.5198 118.639 35.1195L116.517 40.3318C115.064 39.6861 113.011 39.3632 112.043 39.3632C109.921 39.3862 108.675 39.7553 108.675 43.4915C108.675 47.2048 109.921 47.5738 112.043 47.6199C113.011 47.6199 115.087 47.297 116.517 46.6512L118.639 51.8175Z" fill="white"/>
<path d="M131.993 53.3627V46.8127C130.793 47.3201 129.018 47.3662 127.818 47.3662C124.751 47.3662 121.407 46.9972 121.407 40.401V33.5742H127.542V40.4241C127.542 41.7387 128.164 41.8079 128.833 41.8079C129.779 41.8079 131.393 41.6464 132.016 41.4389V33.5973H138.151V53.3627H131.993Z" fill="white"/>
<path d="M142.025 53.3626V33.5972H155.356V39.2939H148.137V40.6777H154.803V46.236H148.137V47.6198H155.356V53.3165H142.025V53.3626Z" fill="white"/>
<path d="M162.852 53.3627V39.4323H158.423V33.5742H173.415V39.4323H168.987V53.3627H162.852Z" fill="white"/>
<path d="M187.599 53.3627V46.8127C186.399 47.3201 184.623 47.3662 183.424 47.3662C180.357 47.3662 177.012 46.9972 177.012 40.401V33.5742H183.147V40.4241C183.147 41.7387 183.77 41.8079 184.439 41.8079C185.385 41.8079 186.999 41.6464 187.622 41.4389V33.5973H193.757V53.3627H187.599Z" fill="white"/>
<path d="M208.54 53.3627V50.0185C208.54 48.4502 208.633 47.1125 208.817 45.5903L209.094 43.2148L202.106 53.3396H197.354V33.5742H203.489V36.9184C203.489 38.4867 203.397 39.8244 203.213 41.3466L202.936 43.7914L209.924 33.5742H214.675V53.3396H208.54V53.3627Z" fill="white"/>
<path d="M229.182 53.3626L225.907 46.3974H224.431V53.3626H218.296V33.5972H224.431V40.5624H225.907L229.182 33.5972H235.709L231.027 43.5145L235.709 53.3626H229.182Z" fill="white"/>
<path d="M56.6214 2H29.1527V84.8211H56.6214V2Z" stroke="url(#paint2_linear)" stroke-width="3" stroke-miterlimit="10"/>
<path d="M70.5269 78.2708C70.204 78.7782 69.7889 79.1933 69.2584 79.4701C68.728 79.7469 68.1514 79.9083 67.5286 79.9083H63.4464V68.6533H67.298C67.8285 68.6533 68.2897 68.7686 68.751 68.9762C69.1892 69.1838 69.5813 69.4836 69.8811 69.8757C70.3193 70.4062 70.5269 71.0289 70.5269 71.7208C70.5269 72.1129 70.4577 72.5049 70.2963 72.8739C70.1348 73.243 69.9273 73.5889 69.6274 73.8657C70.0426 74.1655 70.3885 74.5345 70.6192 75.0189C70.8498 75.5032 70.9882 76.0106 71.0112 76.541C71.0112 77.2099 70.8498 77.7634 70.5269 78.2708ZM65.3146 70.3139V73.2199H67.0904C67.1827 73.2199 67.298 73.2199 67.4133 73.1968C67.5286 73.1738 67.6209 73.1507 67.7132 73.1276C67.9899 73.0123 68.1975 72.8278 68.3359 72.5741C68.4743 72.3204 68.5434 72.0667 68.5434 71.79C68.5434 71.5132 68.4743 71.2364 68.3359 70.9827C68.1975 70.729 67.9899 70.5445 67.7132 70.4292C67.5978 70.3831 67.4825 70.337 67.3672 70.337C67.2519 70.337 67.1366 70.3139 67.0213 70.3139C66.9059 70.3139 66.8137 70.3139 66.7445 70.3139H65.3146ZM68.7741 77.4866C68.9355 77.1868 69.0278 76.887 69.0278 76.541C69.0278 76.1951 68.9355 75.8722 68.7741 75.5954C68.6126 75.3187 68.3589 75.088 68.013 74.9727C67.8746 74.9266 67.7132 74.8805 67.5286 74.8805C67.3672 74.8574 67.0904 74.8574 66.6984 74.8574H65.2684V78.2708H66.6984C67.0443 78.2708 67.3211 78.2708 67.5286 78.2477C67.7362 78.2247 67.8746 78.2016 67.9899 78.1555C68.3589 78.0171 68.6126 77.7865 68.7741 77.4866Z" fill="white"/>
<path d="M76.2003 68.6763H80.3979C81.4357 68.6763 82.243 69.0222 82.8195 69.7141C83.3961 70.406 83.696 71.2824 83.696 72.3895C83.696 73.1275 83.5576 73.7733 83.3039 74.3499C83.0502 74.9265 82.6581 75.3878 82.1738 75.7106C81.6894 76.0335 81.0898 76.195 80.4209 76.195H78.0685V79.9543H76.2003V68.6763ZM79.9597 74.5344C80.5593 74.5344 81.0206 74.3499 81.3435 73.9809C81.6664 73.6119 81.8278 73.0814 81.8278 72.4126C81.8278 71.7437 81.6664 71.2363 81.3435 70.8673C81.0206 70.4983 80.5593 70.3138 79.9597 70.3138H78.0685V74.5344H79.9597Z" fill="white"/>
<path d="M95.5739 70.5445H90.7306V73.3583H94.6283V75.2264H90.7306V78.0402H95.5739V79.9314H89.785V79.9083H88.8394V68.6533H95.5508V70.5445H95.5739Z" fill="white"/>
<path d="M109.712 68.6763H111.857V79.9313H109.989V72.6893L106.76 79.9313H106.183L102.954 72.6663V79.9313H101.086V68.6763H103.231L106.483 75.9643L109.712 68.6763Z" fill="white"/>
<path d="M122.489 76.1719H120.667L118.845 79.9313H116.861L118.822 75.9182C118.199 75.6645 117.715 75.2263 117.369 74.5805C117.023 73.9348 116.861 73.2198 116.861 72.3895C116.861 71.3055 117.161 70.406 117.738 69.7141C118.314 69.0222 119.121 68.6763 120.159 68.6763H124.288V79.9313H122.489V76.1719ZM120.597 70.3138C119.998 70.3138 119.537 70.4983 119.214 70.8673C118.891 71.2363 118.729 71.7437 118.729 72.4126C118.729 73.0814 118.891 73.6119 119.214 73.9809C119.537 74.3499 119.998 74.5344 120.597 74.5344H122.489V70.3138H120.597Z" fill="white"/>
<path d="M145.553 68.6763V79.9313H143.685V70.2907H139.003V79.9313H137.135V68.6763H145.553Z" fill="white"/>
<path d="M159.206 78.5935C158.745 79.1009 158.215 79.493 157.592 79.7467C156.969 80.0234 156.346 80.1387 155.678 80.1387C155.009 80.1387 154.363 80.0004 153.74 79.7467C153.117 79.4699 152.587 79.1009 152.149 78.5935C151.711 78.0861 151.365 77.4403 151.111 76.6792C150.857 75.9181 150.742 75.134 150.742 74.2806C150.742 73.4503 150.857 72.6431 151.111 71.882C151.365 71.1209 151.711 70.4751 152.195 69.9677C152.656 69.4373 153.21 69.0452 153.809 68.7915C154.409 68.5147 155.032 68.3994 155.678 68.3994C156.323 68.3994 156.969 68.5378 157.569 68.8146C158.168 69.0913 158.699 69.4834 159.183 69.9908C159.644 70.5213 160.013 71.144 160.244 71.9051C160.498 72.6662 160.613 73.4734 160.613 74.3037C160.613 75.134 160.498 75.9412 160.244 76.6792C160.013 77.4634 159.668 78.0861 159.206 78.5935ZM153.51 77.325C153.763 77.6709 154.086 77.9246 154.478 78.1092C154.847 78.2937 155.262 78.3859 155.678 78.3859C156.093 78.3859 156.485 78.2937 156.877 78.1092C157.246 77.9246 157.592 77.6479 157.846 77.3019C158.099 76.956 158.307 76.4947 158.445 75.9642C158.584 75.4338 158.653 74.8572 158.653 74.2806C158.653 73.681 158.584 73.1274 158.445 72.597C158.307 72.0665 158.099 71.6283 157.846 71.2824C157.569 70.9364 157.246 70.6596 156.877 70.4751C156.508 70.2906 156.093 70.1984 155.678 70.1984C155.262 70.1984 154.87 70.2906 154.501 70.4751C154.132 70.6596 153.809 70.9133 153.533 71.2593C153.279 71.6052 153.071 72.0665 152.933 72.597C152.795 73.1274 152.725 73.704 152.725 74.2806C152.725 74.8572 152.795 75.4338 152.933 75.9642C153.048 76.5178 153.256 76.979 153.51 77.325Z" fill="white"/>
<path d="M172.86 78.2708C172.537 78.7782 172.122 79.1933 171.591 79.4701C171.061 79.7469 170.484 79.9083 169.862 79.9083H165.779V68.6533H169.631C170.161 68.6533 170.623 68.7686 171.084 68.9762C171.522 69.1838 171.914 69.4836 172.214 69.8757C172.652 70.4062 172.86 71.0289 172.86 71.7208C172.86 72.1129 172.791 72.5049 172.629 72.8739C172.468 73.243 172.26 73.5889 171.96 73.8657C172.375 74.1655 172.721 74.5345 172.952 75.0189C173.183 75.5032 173.321 76.0106 173.344 76.541C173.344 77.2099 173.183 77.7634 172.86 78.2708ZM167.624 70.3139V73.2199H169.4C169.493 73.2199 169.608 73.2199 169.723 73.1968C169.838 73.1738 169.931 73.1507 170.023 73.1276C170.3 73.0123 170.507 72.8278 170.646 72.5741C170.784 72.3204 170.853 72.0667 170.853 71.79C170.853 71.5132 170.784 71.2364 170.646 70.9827C170.507 70.729 170.3 70.5445 170.023 70.4292C169.908 70.3831 169.792 70.337 169.677 70.337C169.562 70.337 169.446 70.3139 169.331 70.3139C169.216 70.3139 169.124 70.3139 169.054 70.3139H167.624ZM171.107 77.4866C171.268 77.1868 171.361 76.887 171.361 76.541C171.361 76.1951 171.268 75.8722 171.107 75.5954C170.946 75.3187 170.692 75.088 170.346 74.9727C170.207 74.9266 170.046 74.8805 169.862 74.8805C169.677 74.8805 169.423 74.8574 169.031 74.8574H167.601V78.2708H169.031C169.377 78.2708 169.654 78.2708 169.862 78.2477C170.069 78.2247 170.207 78.2016 170.323 78.1555C170.692 78.0171 170.946 77.7865 171.107 77.4866Z" fill="white"/>
<path d="M185.245 70.5445H180.401V73.3583H184.299V75.2264H180.401V78.0402H185.245V79.9314H179.456V79.9083H178.51V68.6533H185.222V70.5445H185.245Z" fill="white"/>
<path d="M190.711 68.6763H194.908C195.946 68.6763 196.753 69.0222 197.33 69.7141C197.906 70.406 198.206 71.2824 198.206 72.3895C198.206 73.1275 198.068 73.7733 197.814 74.3499C197.56 74.9265 197.168 75.3878 196.684 75.7106C196.2 76.0335 195.6 76.195 194.931 76.195H192.579V79.9543H190.711V68.6763ZM194.493 74.5344C195.093 74.5344 195.554 74.3499 195.877 73.9809C196.2 73.6119 196.361 73.0814 196.361 72.4126C196.361 71.7437 196.2 71.2363 195.877 70.8673C195.554 70.4983 195.093 70.3138 194.493 70.3138H192.602V74.5344H194.493Z" fill="white"/>
<path d="M205.264 68.6763V76.7254L209.646 68.6763H211.814V79.9313H209.923V71.8821L205.495 79.9313H203.373V68.6763H205.264Z" fill="white"/>
<path d="M224.96 68.6763V70.5675H221.685V79.9313H219.817V70.5675H216.542V68.6763H224.96Z" fill="white"/>
<path d="M235.316 73.658C235.823 73.9578 236.238 74.373 236.538 74.8804C236.838 75.3877 236.999 75.9643 236.999 76.564C236.999 77.1867 236.838 77.7402 236.538 78.2476C236.238 78.755 235.823 79.1702 235.316 79.47C234.808 79.7698 234.232 79.9313 233.632 79.9313H229.504V68.6763H231.372V73.1967H233.632C234.255 73.1967 234.808 73.3582 235.316 73.658ZM234.762 77.671C235.085 77.3481 235.223 76.9791 235.223 76.564C235.223 76.1258 235.062 75.7568 234.762 75.4569C234.439 75.1571 234.07 74.9957 233.655 74.9957H231.395V78.1554H233.655C234.07 78.1323 234.439 77.9709 234.762 77.671Z" fill="white"/>
<defs>
<linearGradient id="paint0_linear" x1="43.0686" y1="27.1392" x2="43.0686" y2="6.7569" gradientUnits="userSpaceOnUse">
<stop stop-color="white"/>
<stop offset="1" stop-color="white" stop-opacity="0"/>
</linearGradient>
<linearGradient id="paint1_linear" x1="42.4418" y1="60.1465" x2="42.4418" y2="79.9162" gradientUnits="userSpaceOnUse">
<stop stop-color="white"/>
<stop offset="1" stop-color="white" stop-opacity="0"/>
</linearGradient>
<linearGradient id="paint2_linear" x1="42.8879" y1="85.4084" x2="42.8879" y2="1.43416" gradientUnits="userSpaceOnUse">
<stop stop-color="white" stop-opacity="0"/>
<stop offset="0.5238" stop-color="white"/>
<stop offset="1" stop-color="#F5D2D2" stop-opacity="0"/>
</linearGradient>
</defs>
</svg>
