<svg width="66" height="66" viewBox="0 0 66 66" fill="none" xmlns="http://www.w3.org/2000/svg">
<g clip-path="url(#clip0)">
<path d="M39.3541 33.1878C39.3401 32.654 38.8959 32.2336 38.3617 32.2477C37.8274 32.2623 37.407 32.7069 37.4216 33.2406L37.4357 33.7558C37.4498 34.2804 37.8798 34.6959 38.4015 34.6959C38.4105 34.6959 38.4196 34.6959 38.4281 34.6954C38.9624 34.6808 39.3829 34.2361 39.3682 33.7024L39.3541 33.1878Z" fill="#682121"/>
<path d="M47.9086 32.2477C47.8995 32.2477 47.8904 32.2477 47.8819 32.2482C47.3481 32.2623 46.9272 32.7069 46.9413 33.2407L46.9554 33.7553C46.9695 34.2805 47.3995 34.6959 47.9212 34.6959C47.9302 34.6959 47.9393 34.6959 47.9478 34.6954C48.4816 34.6813 48.9026 34.2367 48.8885 33.7029L48.8744 33.1883C48.8603 32.6636 48.4302 32.2477 47.9086 32.2477Z" fill="#682121"/>
<path d="M46.615 36.0283C46.183 35.7151 45.5782 35.8118 45.265 36.2444C44.7756 36.9201 43.9865 37.3239 43.1547 37.3239C42.3223 37.3239 41.5333 36.9201 41.0438 36.2444C40.7306 35.8118 40.1264 35.7151 39.6938 36.0283C39.2613 36.3415 39.1646 36.9458 39.4778 37.3783C40.3298 38.5551 41.704 39.2575 43.1542 39.2575C44.6044 39.2575 45.979 38.5551 46.831 37.3783C47.1442 36.9458 47.0475 36.3415 46.615 36.0283Z" fill="#682121"/>
<path d="M4.39288 48.6691C3.93013 48.4027 3.33897 48.5624 3.0731 49.0251C2.32787 50.3212 1.93359 51.8011 1.93359 53.3037V65.0332C1.93359 65.5669 2.36613 66 2.90039 66C3.43465 66 3.86719 65.5669 3.86719 65.0332V53.3037C3.86719 52.1385 4.17233 50.9925 4.74939 49.9894C5.01526 49.5261 4.85564 48.9355 4.39288 48.6691Z" fill="#682121"/>
<path d="M14.0025 29.5725C13.4687 29.5871 13.0478 30.0312 13.0624 30.565L13.0775 31.1199C13.0916 31.6446 13.5216 32.0605 14.0433 32.0605C14.0523 32.0605 14.0614 32.0605 14.0705 32.06C14.6042 32.0454 15.0252 31.6007 15.0106 31.0675L14.9955 30.5126C14.9809 29.9788 14.5352 29.5584 14.0025 29.5725Z" fill="#682121"/>
<path d="M24.3058 32.0605C24.3149 32.0605 24.3239 32.0605 24.333 32.06C24.8668 32.0454 25.2877 31.6007 25.2726 31.067L25.2575 30.5121C25.2429 29.9783 24.8013 29.5584 24.2645 29.5725C23.7308 29.5871 23.3098 30.0317 23.3249 30.5655L23.34 31.1199C23.3541 31.6446 23.7841 32.0605 24.3058 32.0605Z" fill="#682121"/>
<path d="M23.0699 34.9829C23.3831 34.5504 23.2864 33.9461 22.8534 33.6324C22.4213 33.3197 21.8166 33.4164 21.5034 33.849C20.9616 34.5972 20.0884 35.0439 19.1675 35.0439C18.2465 35.0439 17.3728 34.5972 16.831 33.849C16.5178 33.4164 15.9136 33.3197 15.481 33.6324C15.0485 33.9461 14.9518 34.5504 15.265 34.9829C16.1694 36.2317 17.6281 36.9774 19.167 36.9774C20.7063 36.9774 22.165 36.2317 23.0699 34.9829Z" fill="#682121"/>
<path d="M9.11307 54.6461C8.57932 54.6461 8.14627 55.0787 8.14627 55.6129V65.0331C8.14627 65.5669 8.57932 65.9999 9.11307 65.9999C9.64732 65.9999 10.0799 65.5669 10.0799 65.0331V55.6129C10.0799 55.0787 9.64732 54.6461 9.11307 54.6461Z" fill="#682121"/>
<path d="M28.8564 54.6461C28.3222 54.6461 27.8896 55.0787 27.8896 55.6129V65.0331C27.8896 65.5669 28.3222 65.9999 28.8564 65.9999C29.3902 65.9999 29.8232 65.5669 29.8232 65.0331V55.6129C29.8232 55.0787 29.3902 54.6461 28.8564 54.6461Z" fill="#682121"/>
<path d="M61.442 0H41.8382C40.4217 0 39.2691 1.1526 39.2691 2.56906V6.66032C39.2691 7.19458 39.7016 7.62712 40.2359 7.62712C40.7696 7.62712 41.2027 7.19458 41.2027 6.66032V2.56906C41.2027 2.2186 41.4877 1.93359 41.8382 1.93359H61.442C61.7924 1.93359 62.0774 2.2186 62.0774 2.56906V15.3978C62.0774 15.7477 61.7924 16.0332 61.442 16.0332H50.7493C50.4502 16.0332 50.1677 16.1717 49.9844 16.4084L48.5196 18.3022C48.3535 18.5167 48.1334 18.5489 48.0166 18.5489C47.9003 18.5489 47.6802 18.5167 47.5141 18.3022L46.0493 16.4084C45.866 16.1717 45.5835 16.0332 45.2844 16.0332H41.8382C41.4877 16.0332 41.2027 15.7482 41.2027 15.3978V10.8709C41.2027 10.3367 40.7701 9.90413 40.2359 9.90413C39.7016 9.90413 39.2691 10.3367 39.2691 10.8709V13.8066C37.1401 14.3851 35.1763 15.436 33.5061 16.8832C32.9507 15.6661 32.2367 14.5105 31.3696 13.4475C28.3664 9.76616 23.9187 7.65482 19.1678 7.65482C14.4169 7.65482 9.96911 9.76616 6.9655 13.4475C3.96239 17.1289 2.78712 21.9095 3.74133 26.5638L4.0918 28.2738C3.36015 29.0694 2.91251 30.1303 2.91251 31.294C2.91251 33.7568 4.91659 35.7609 7.37941 35.7609C7.92172 35.7609 8.44742 35.6622 8.9429 35.4769C9.62268 39.1538 12.2169 42.109 15.6007 43.3498V44.7098H10.5275C9.09698 44.7098 7.68002 45.0688 6.43074 45.7476C5.96144 46.0024 5.78772 46.5895 6.04251 47.0588C6.21774 47.3811 6.55008 47.5644 6.89299 47.5644C7.04909 47.5644 7.2072 47.5266 7.35373 47.4466C8.32103 46.9214 9.41824 46.6434 10.5275 46.6434H12.5261V65.0332C12.5261 65.567 12.9586 66 13.4929 66C14.0266 66 14.4597 65.567 14.4597 65.0332V46.6434H15.6012V47.3715C15.6012 49.3379 17.201 50.9376 19.1678 50.9376C21.1341 50.9376 22.7339 49.3379 22.7339 47.3715V46.6434H23.8759V65.0332C23.8759 65.567 24.3084 66 24.8427 66C25.3764 66 25.8095 65.567 25.8095 65.0332V46.6434H27.4425C31.1148 46.6434 34.1028 49.6314 34.1028 53.3037V65.0332C34.1028 65.567 34.5353 66 35.0696 66C35.6033 66 36.0364 65.567 36.0364 65.0332V58.8729C37.7273 58.7233 40.3215 58.8603 42.5804 60.529C42.7511 60.6549 42.953 60.7184 43.1549 60.7184C43.3568 60.7184 43.5588 60.6549 43.7295 60.529C46.5488 58.4469 49.924 58.7611 51.3455 59.0209V65.0332C51.3455 65.567 51.778 66 52.3123 66C52.846 66 53.2791 65.567 53.2791 65.0332V56.4745C53.2791 55.9403 52.846 55.5077 52.3123 55.5077C51.778 55.5077 51.3455 55.9403 51.3455 56.4745V57.0546C50.8012 56.9685 50.1078 56.895 49.3182 56.8905V48.6893C53.1159 49.926 55.8693 53.4986 55.8693 57.7037V65.0332C55.8693 65.567 56.3018 66 56.8361 66C57.3698 66 57.8029 65.567 57.8029 65.0332V57.7037C57.8029 54.7736 56.6926 52.0978 54.8708 50.075C55.5606 49.2175 55.9901 48.1777 56.1009 47.0639L56.3698 44.3528C56.4222 43.8216 56.0345 43.3483 55.5032 43.2954C54.9705 43.2425 54.4982 43.6307 54.4458 44.162L54.1769 46.873C54.1089 47.5594 53.8572 48.2029 53.4538 48.7457C51.5444 47.2366 49.143 46.3247 46.5332 46.2919V45.1479C49.6476 43.9877 52.0374 41.2706 52.6925 37.8899C53.1391 38.0465 53.6119 38.1291 54.0893 38.1291C54.4216 38.1291 54.7449 38.0893 55.0551 38.0163L54.8632 39.9519C54.8104 40.4831 55.1986 40.9569 55.7298 41.0093C55.762 41.0128 55.7943 41.0143 55.8265 41.0143C56.3174 41.0143 56.7379 40.6417 56.7873 40.1427L57.1146 36.8445C57.8497 36.0857 58.3034 35.0529 58.3034 33.9154C58.3034 33.076 58.0557 32.294 57.6312 31.6364L57.8422 29.5069C58.2677 25.2183 56.8265 21.049 53.9352 17.9668H61.4415C62.8584 17.9668 64.011 16.8147 64.011 15.3978V2.56906C64.011 1.1526 62.8584 0 61.442 0V0ZM33.489 31.294C33.489 32.6908 32.3525 33.8273 30.9557 33.8273C30.4939 33.8273 30.0528 33.7039 29.6631 33.4718L30.2386 28.8634C30.4692 28.7954 30.7089 28.7607 30.9557 28.7607C32.3525 28.7602 33.489 29.8972 33.489 31.294ZM31.0307 35.7589C31.8394 35.7458 32.5967 35.5167 33.2473 35.1264L33.3434 35.8984C33.003 36.0922 32.6204 36.1955 32.22 36.1955C31.793 36.1955 31.3887 36.0746 31.0408 35.8646L31.0307 35.7589ZM8.46403 14.6696C11.0986 11.4404 15 9.58791 19.1678 9.58791C23.3351 9.58791 27.2365 11.4399 29.871 14.6696C32.5055 17.8993 33.5368 22.0928 32.6994 26.1755L32.5091 27.1061C32.0247 26.9258 31.5015 26.8266 30.9551 26.8266C30.7996 26.8266 30.6445 26.8367 30.4899 26.8528L30.6913 25.2394C30.7769 25.2415 30.862 25.2435 30.9496 25.245H30.9773C31.4209 25.245 31.8384 25.0743 32.1556 24.7621C32.4789 24.4444 32.6566 24.0199 32.6566 23.5672V21.7761C32.6566 21.2423 32.2241 20.8093 31.6898 20.8093C31.1556 20.8093 30.723 21.2423 30.723 21.7761V23.3064C25.8367 23.1966 24.0108 22.2645 23.892 22.2006C23.5959 22.0107 23.2313 22.0047 22.9217 22.1724C22.61 22.3411 22.4277 22.6754 22.4277 23.0299V23.2983C18.1234 23.1251 16.0403 21.8264 16.0247 21.8164C15.7276 21.6215 15.3469 21.6054 15.0347 21.7741C14.722 21.9428 14.5272 22.2696 14.5272 22.6251V23.2998C11.021 23.1699 8.86536 22.3592 7.66693 21.693C7.19965 21.4337 6.61151 21.6019 6.35219 22.0686C6.09286 22.5354 6.26105 23.1241 6.72732 23.3834C6.94435 23.5037 7.18756 23.6281 7.45796 23.753L7.84518 26.8513C7.6911 26.8357 7.53601 26.8271 7.37991 26.8271C6.83357 26.8271 6.31039 26.9258 5.82599 27.1061L5.63565 26.176C4.79826 22.0928 5.82951 17.8993 8.46403 14.6696ZM4.8461 31.294C4.8461 29.8972 5.98259 28.7602 7.37991 28.7602C7.62564 28.7602 7.86532 28.7964 8.09645 28.8644L8.672 33.4718C8.28226 33.7045 7.84116 33.8273 7.37991 33.8273C5.98259 33.8273 4.8461 32.6908 4.8461 31.294ZM10.7657 34.633L9.49982 24.4992C10.8569 24.8844 12.582 25.1825 14.7336 25.2404C15.1903 25.251 15.6254 25.0838 15.9537 24.7641C16.146 24.5768 16.2875 24.3522 16.3716 24.106C17.6134 24.5838 19.6854 25.1543 22.6316 25.2394C23.0808 25.2525 23.5284 25.0798 23.8522 24.7646C23.9731 24.6473 24.0738 24.5154 24.1528 24.3728C25.0728 24.6599 26.5456 24.9872 28.7537 25.1493L28.3906 28.0578C28.3896 28.0658 28.3886 28.0739 28.3876 28.0814L27.5693 34.633C27.0411 38.8617 23.4292 42.0506 19.1673 42.0506C14.9058 42.0506 11.2939 38.8617 10.7657 34.633ZM19.1678 49.0045C18.2675 49.0045 17.5348 48.2719 17.5348 47.3715V43.8528C18.0681 43.9379 18.6129 43.9842 19.1678 43.9842C19.7222 43.9842 20.2675 43.9379 20.8003 43.8528V47.3715C20.8003 48.2719 20.0681 49.0045 19.1678 49.0045ZM22.7339 44.7098V43.3498C25.7254 42.2525 28.1016 39.8169 29.082 36.7257C29.1187 36.767 29.1565 36.8073 29.1953 36.847L30.014 45.1036C29.2013 44.8478 28.3377 44.7098 27.4419 44.7098H22.7339ZM32.0519 46.0563L31.2543 38.0158C31.5659 38.0893 31.8897 38.1291 32.22 38.1291C32.7034 38.1291 33.1732 38.047 33.6174 37.8909C34.273 41.2717 36.6623 43.9883 39.7762 45.1479V46.293C37.763 46.3181 35.8204 46.864 34.1043 47.8826C33.5232 47.1696 32.8298 46.5528 32.0519 46.0563ZM36.0364 56.9333V53.3037C36.0364 51.9422 35.7166 50.6546 35.1506 49.5091C35.7358 49.1677 36.3526 48.8932 36.9916 48.6858V56.8945C36.6542 56.8965 36.334 56.9106 36.0364 56.9333ZM47.3846 48.2764V57.0254C46.0347 57.2258 44.5648 57.678 43.1549 58.5788C41.747 57.6805 40.2757 57.2283 38.9252 57.0284V48.2769C39.2067 48.2472 39.4907 48.2311 39.7762 48.2265V48.8293C39.7762 50.6924 41.2918 52.2075 43.1549 52.2075C45.0175 52.2075 46.5332 50.6919 46.5332 48.8293V48.2276C46.8202 48.2321 47.1042 48.2472 47.3846 48.2764ZM44.5996 48.8293C44.5996 49.6259 43.9515 50.2739 43.1549 50.2739C42.3583 50.2739 41.7098 49.6259 41.7098 48.8293V45.6479C42.1826 45.7189 42.6645 45.7572 43.1549 45.7572C43.6449 45.7572 44.1272 45.7189 44.5996 45.6479V48.8293ZM43.1549 43.8236C39.2369 43.8236 35.916 40.8915 35.4306 37.0042L34.9633 33.2639C35.2569 32.6692 35.4226 32.0005 35.4226 31.294C35.4226 30.3257 35.1119 29.4294 34.5867 28.6967C36.9352 28.8539 39.8754 28.514 42.4993 26.6272C43.4842 28.451 45.9611 31.7386 51.3883 32.93L50.8792 37.0042C50.3933 40.892 47.073 43.8236 43.1549 43.8236ZM52.9659 35.8989L53.3138 33.1153C53.5918 33.0514 53.8566 32.93 54.0928 32.7533C54.4342 32.497 54.6809 32.15 54.8124 31.7542C55.7162 32.0574 56.3698 32.9104 56.3698 33.9154C56.3698 35.1728 55.3471 36.1955 54.0898 36.1955C53.6885 36.1955 53.3063 36.0932 52.9659 35.8989ZM55.9181 29.3161L55.8416 30.0845C55.6075 29.9767 55.3612 29.8896 55.1059 29.8262L55.3788 27.7753C55.4488 27.246 55.0767 26.7601 54.5475 26.6896C54.0193 26.6201 53.5324 26.9913 53.4619 27.5205L52.984 31.1183C52.979 31.155 52.9614 31.1842 52.9321 31.2069C52.9115 31.2225 52.8768 31.2391 52.8309 31.2321C45.5991 30.1308 43.8558 25.0093 43.7869 24.7963C43.6872 24.4811 43.4344 24.2384 43.1151 24.1523C42.7959 24.0667 42.4555 24.1498 42.2118 24.3728C39.7918 26.5889 36.8345 26.9339 34.555 26.7556L34.5942 26.5643C35.1295 23.9529 34.994 21.3023 34.2423 18.8279C35.6824 17.4341 37.412 16.4048 39.3054 15.8107C39.5042 17.0312 40.5627 17.9668 41.8387 17.9668H44.81L45.9848 19.4855C46.4753 20.1194 47.216 20.4825 48.0171 20.4825C48.8182 20.4825 49.5589 20.1194 50.0494 19.4855L51.1698 18.0368C54.5752 20.7675 56.3492 24.9711 55.9181 29.3161Z" fill="#682121"/>
<path d="M49.2402 5.98608C48.706 5.98608 48.2734 6.41913 48.2734 6.95288V7.82854H47.3978C46.8635 7.82854 46.431 8.26158 46.431 8.79533C46.431 9.32959 46.8635 9.76213 47.3978 9.76213H48.2734V10.6383C48.2734 11.172 48.706 11.6051 49.2402 11.6051C49.7745 11.6051 50.207 11.172 50.207 10.6383V9.76213H51.0827C51.6169 9.76213 52.0495 9.32959 52.0495 8.79533C52.0495 8.26158 51.6169 7.82854 51.0827 7.82854H50.207V6.95288C50.207 6.41913 49.7745 5.98608 49.2402 5.98608Z" fill="#682121"/>
<path d="M56.2044 4.84402C55.9153 4.66878 55.5558 4.6572 55.2562 4.8138L54.0276 5.45481C53.5542 5.70155 53.3704 6.28565 53.6177 6.75898C53.8332 7.17239 54.305 7.36474 54.7365 7.24288V10.9535H54.5296C53.9953 10.9535 53.5628 11.386 53.5628 11.9203C53.5628 12.454 53.9953 12.8871 54.5296 12.8871H56.8771C57.4114 12.8871 57.8439 12.454 57.8439 11.9203C57.8439 11.386 57.4114 10.9535 56.8771 10.9535H56.6701V5.67083C56.6701 5.33295 56.4934 5.01925 56.2044 4.84402Z" fill="#682121"/>
</g>
<defs>
<clipPath id="clip0">
<rect width="66" height="66" fill="white"/>
</clipPath>
</defs>
</svg>
