<svg width="70" height="73" viewBox="0 0 70 73" fill="none" xmlns="http://www.w3.org/2000/svg">
<path d="M29.5667 15.8881C28.9834 15.8881 28.5107 16.3619 28.5107 16.9464C28.5107 17.5308 28.9834 18.0047 29.5667 18.0047H38.4187H38.4208H40.4329C41.0161 18.0047 41.4889 17.5308 41.4889 16.9464C41.4889 16.3619 41.0161 15.8881 40.4329 15.8881H40.3953C41.5279 13.882 42.4878 11.0558 41.4051 8.78509C40.7925 7.50017 39.6545 6.63251 38.0148 6.18436C38.0039 6.18111 37.9928 6.17829 37.9818 6.17547C37.4019 6.01955 36.7603 5.91527 36.0558 5.86447V4.19378H36.5178C37.1012 4.19378 37.5738 3.71994 37.5738 3.13548C37.5738 2.55102 37.1012 2.07718 36.5178 2.07718H36.0558V1.3083C36.0558 0.723834 35.5831 0.25 34.9998 0.25C34.4165 0.25 33.9438 0.723834 33.9438 1.3083V2.07704H33.4817C32.8984 2.07704 32.4258 2.55088 32.4258 3.13534C32.4258 3.7198 32.8984 4.19363 33.4817 4.19363H33.9438V5.86433C33.2384 5.91513 32.5963 6.01969 32.0158 6.17589C32.0055 6.17858 31.9952 6.18126 31.9851 6.18422C30.3453 6.63237 29.2072 7.50003 28.5945 8.78509C27.5118 11.0558 28.4718 13.8821 29.6043 15.8881H29.5667ZM34.9998 7.94226C35.5442 7.94226 36.04 7.97359 36.4921 8.03271L36.0631 10.4531C36.0481 10.538 35.9747 10.5997 35.8885 10.5997H34.1104C34.0244 10.5997 33.9509 10.538 33.9359 10.4531L33.5071 8.03285C33.959 7.97359 34.4551 7.94226 34.9998 7.94226ZM30.5 9.69762C30.7001 9.27797 31.0267 8.93396 31.4737 8.66416L31.8563 10.8231C32.0506 11.92 32.9984 12.7163 34.1102 12.7163H35.8883C37.0002 12.7163 37.9482 11.92 38.1425 10.8232L38.5253 8.66374C38.9727 8.93367 39.2994 9.27769 39.4996 9.69748C40.3068 11.3902 39.1199 14.1862 37.8969 15.8879H32.1028C30.8797 14.1862 29.6928 11.3903 30.5 9.69762ZM45.0945 25.4929C45.6778 25.4929 46.1504 25.0191 46.1504 24.4346V23.6986C46.1504 23.1141 45.6778 22.6403 45.0945 22.6403C44.5112 22.6403 44.0385 23.1141 44.0385 23.6986V24.4346C44.0385 25.0191 44.5112 25.4929 45.0945 25.4929ZM24.905 22.6403C24.3216 22.6403 23.849 23.1141 23.849 23.6986V24.4346C23.849 25.0191 24.3216 25.4929 24.905 25.4929C25.4883 25.4929 25.9609 25.0191 25.9609 24.4346V23.6986C25.9609 23.1141 25.4883 22.6403 24.905 22.6403ZM69.7858 33.2029C69.5359 31.7304 67.9821 30.8071 65.0359 30.3804C62.8455 30.063 60.4618 30.0913 59.1618 30.1414C58.4759 29.489 57.4409 29.1268 56.0749 29.0625C55.3973 29.0311 54.7302 29.2806 54.2398 29.7484C53.747 30.2184 53.4747 30.8508 53.473 31.5291C53.4653 34.4797 52.5681 36.7248 50.8067 38.2023C49.2067 39.5443 47.1287 40.0037 45.6706 39.896V36.0855C45.6706 34.7663 44.6635 33.6789 43.3793 33.5539C43.859 32.07 44.4627 30.571 45.0266 29.491C45.3053 28.9576 45.8491 28.6263 46.4463 28.6263H48.1102L48.1116 28.6264L48.113 28.6263H51.0584C51.3635 28.6263 51.6627 28.6816 51.9475 28.7907L52.9163 29.1621C53.5265 29.3959 54.2131 29.276 54.7081 28.849C55.2033 28.422 55.424 27.7595 55.2842 27.12L55.0154 25.8901C54.6668 24.2945 53.4902 22.9815 51.9446 22.4634L50.6999 22.0462C50.532 21.9899 50.3843 21.878 50.2845 21.7313L50.0879 21.4425C49.5418 20.6403 48.6373 20.1613 47.6685 20.1613H43.5464C42.0588 20.1613 39.9525 20.0826 38.8424 19.4025C38.3856 19.1225 37.8184 19.0791 37.325 19.2859C36.8366 19.491 36.4732 19.9215 36.3532 20.4375C35.7074 23.2104 36.8269 24.69 37.6871 25.3848C36.8173 26.9919 35.7729 29.193 35.0002 31.6677C34.2275 29.193 33.1833 26.9919 32.3133 25.3848C33.1735 24.6901 34.293 23.2104 33.6472 20.4378C33.5271 19.9215 33.1637 19.491 32.6754 19.2859C32.1821 19.0791 31.6151 19.1225 31.1579 19.4026C30.0479 20.0828 27.9416 20.1615 26.454 20.1615H22.3319C21.3631 20.1615 20.4587 20.6404 19.9124 21.4427L19.7158 21.7313C19.616 21.8782 19.4683 21.9899 19.3003 22.0462L18.0557 22.4634C16.5099 22.9815 15.3333 24.2945 14.9847 25.8901L14.7159 27.1201C14.5761 27.7596 14.7969 28.4221 15.2921 28.8491C15.7872 29.2762 16.474 29.3962 17.0839 29.1622L18.0525 28.791C18.3373 28.6818 18.6365 28.6264 18.9416 28.6264H21.887L21.8884 28.6266L21.8898 28.6264H23.5537C24.1509 28.6264 24.6947 28.9578 24.9734 29.4911C25.5374 30.5712 26.141 32.0701 26.6207 33.554C25.3365 33.679 24.3294 34.7664 24.3294 36.0856V39.8962C22.872 40.0037 20.7933 39.5445 19.1933 38.2025C17.4317 36.725 16.5346 34.4798 16.527 31.5294C16.5251 30.851 16.253 30.2185 15.7602 29.7487C15.2698 29.2809 14.6024 29.0317 13.9251 29.0627C12.3379 29.1375 11.3978 29.6228 10.8431 30.1416C10.0501 30.1106 8.9891 30.0928 7.80797 30.1374C7.22508 30.1593 6.77045 30.6506 6.79228 31.2347C6.81424 31.8187 7.30421 32.2776 7.8871 32.2525C8.96404 32.2121 10.1567 32.2214 11.2449 32.279C11.6158 32.2976 11.9692 32.1218 12.1764 31.8135C12.4187 31.4529 13.0921 31.221 14.0242 31.1771C14.1653 31.1716 14.2602 31.24 14.3041 31.2819C14.3545 31.33 14.4146 31.4129 14.4149 31.5349C14.4266 36.0244 16.2828 38.5215 17.8378 39.8258C19.7062 41.3927 22.0481 42.028 23.924 42.028C24.062 42.028 24.1966 42.0233 24.3292 42.0166V49.2579C23.6617 50.1426 23.0941 50.434 22.788 50.4728C22.4944 50.0119 22.2268 48.1064 22.6838 45.5725C22.7668 45.1126 22.539 44.6527 22.1236 44.4408C21.7075 44.229 21.2029 44.3153 20.8809 44.6534C19.673 45.9218 18.0156 47.1967 16.5558 47.9806C15.1382 48.7417 14.1775 48.8948 13.783 48.7123C13.8561 48.1903 14.6769 46.7469 16.4162 44.9149C16.7645 44.548 16.8046 43.9853 16.512 43.5724C16.2195 43.1595 15.6761 43.0126 15.2156 43.2212C12.0097 44.6759 8.47661 45.2787 7.59636 44.9636C7.6645 44.4301 8.67076 43.2997 10.9626 42.1111C11.422 41.8729 11.6415 41.3364 11.4816 40.8436C11.3215 40.351 10.8293 40.0463 10.3176 40.125C6.36652 40.7314 4.14055 39.5088 3.88078 38.9818C3.97455 38.8493 4.50507 38.2713 6.87929 37.6883C7.38911 37.563 7.72969 37.0815 7.679 36.5579C7.62817 36.0342 7.20129 35.6276 6.67711 35.6032C3.70733 35.4649 2.76259 34.6731 2.49424 34.3391C2.30557 34.1042 2.24461 33.8633 2.29628 33.5584C2.30811 33.4888 2.47819 33.252 3.11472 32.9955C3.65579 32.7775 3.91809 32.1612 3.70057 31.6189C3.4829 31.0766 2.86777 30.8136 2.32683 31.0317C1.08488 31.5321 0.374011 32.2628 0.214209 33.2032C0.0607431 34.1067 0.280524 34.9586 0.849334 35.6667C1.31719 36.249 1.99583 36.7103 2.87945 37.0485C2.2187 37.5397 1.74408 38.1792 1.75647 39.0078C1.76351 39.4681 1.94063 40.1598 2.74513 40.8414C3.5464 41.5203 4.95561 42.141 6.89548 42.3408C5.76335 43.4293 5.29338 44.5391 5.54864 45.5942C5.67704 46.1245 6.04212 46.5605 6.57672 46.8218C7.86091 47.4497 10.2644 47.092 12.5169 46.4474C11.9996 47.2979 11.6401 48.1619 11.6691 48.8947C11.69 49.4282 11.8975 49.8868 12.2691 50.2208C14.1917 51.9495 17.7572 50.0314 20.3332 47.9896C20.3072 49.363 20.4625 50.9056 21.1473 51.8061C21.5905 52.3889 22.1238 52.5507 22.4931 52.5839C22.5714 52.5909 22.6496 52.5943 22.7283 52.5943C23.2644 52.5943 23.8058 52.4306 24.3347 52.1153C24.3442 52.311 24.3678 52.5029 24.4034 52.6905C23.39 54.083 22.8358 55.7681 22.8358 57.4955V59.2647C22.8358 61.0715 24.0555 62.5973 25.713 63.061V63.2007C25.713 63.6514 25.347 64.018 24.8975 64.018H21.3046L20.262 61.1472C19.9438 60.2713 19.0233 59.7878 18.1389 59.9917L16.8478 56.4366C17.7731 55.9579 18.357 54.9604 18.2949 53.9012L18.152 51.4734C18.1177 50.8899 17.6209 50.4457 17.0357 50.4793C16.4535 50.5137 16.0094 51.0146 16.0436 51.598L16.1865 54.0257C16.1937 54.1479 16.1598 54.2663 16.0954 54.3648L15.265 52.0783C15.0657 51.5291 14.4601 51.2456 13.9116 51.4457C13.3636 51.6457 13.081 52.253 13.2805 52.8022L14.1109 55.0888C13.9984 55.0549 13.8965 54.9861 13.8237 54.8879L12.3761 52.9361C12.0277 52.4669 11.3666 52.3693 10.8986 52.7182C10.4306 53.0669 10.3331 53.7298 10.681 54.199L12.1288 56.1509C12.6406 56.8408 13.4517 57.2278 14.2814 57.2278C14.4756 57.2278 14.6706 57.2041 14.8633 57.1606L16.1546 60.7161C15.3464 61.1294 14.9515 62.0929 15.2694 62.969L18.2927 71.2936C18.5622 72.0354 19.2637 72.4969 20.0094 72.4969C20.2162 72.4969 20.4264 72.4614 20.6317 72.3866L22.1945 71.8165C23.1401 71.4716 23.6292 70.4201 23.2852 69.4723L22.0733 66.135H24.8975C26.5117 66.135 27.8249 64.8189 27.8249 63.2011V63.0614C29.4822 62.5978 30.702 61.0721 30.702 59.2651V57.4959C30.702 57.4055 30.7464 57.3208 30.8209 57.2696L32.5325 56.0902C32.6257 56.1121 32.713 56.1558 32.7851 56.2214L33.6208 56.9822C33.6988 57.0533 33.7818 57.1152 33.867 57.1722C33.6752 57.823 33.1333 58.3514 32.3495 59.0701C30.8958 60.4031 28.9049 62.2289 30.918 65.9973C31.1085 66.3536 31.4729 66.5562 31.8499 66.5562C32.018 66.5562 32.1887 66.5159 32.3474 66.4306C32.8614 66.1548 33.0551 65.5134 32.7799 64.9981C31.5415 62.6799 32.3821 61.9089 33.775 60.6316C33.8308 60.5805 33.8875 60.5283 33.9445 60.4757V65.9269C33.9445 66.5113 34.4172 66.9852 35.0005 66.9852C35.5838 66.9852 36.0565 66.5113 36.0565 65.9269V60.4757C36.1135 60.5283 36.1702 60.5804 36.226 60.6316C37.619 61.9089 38.4595 62.6799 37.2211 64.9981C36.9459 65.5134 37.1396 66.1548 37.6536 66.4306C37.8123 66.5157 37.9829 66.5562 38.1511 66.5562C38.528 66.5562 38.8928 66.3536 39.083 65.9973C41.0961 62.2289 39.1052 60.4031 37.6515 59.0701C36.8679 58.3514 36.3259 57.823 36.1342 57.1722C36.2194 57.1152 36.3023 57.0533 36.3803 56.9823L37.2159 56.2214C37.2881 56.1558 37.3753 56.1122 37.4685 56.0902L39.1801 57.2696C39.2545 57.3208 39.299 57.4055 39.299 57.4959V59.2651C39.299 61.072 40.5187 62.5978 42.176 63.0614V63.2011C42.176 64.8189 43.4891 66.135 45.1034 66.135H47.3587C48.0447 68.3229 50.0869 69.9144 52.4935 69.9144C53.3441 69.9144 54.1915 69.7101 54.9443 69.3234C55.4633 69.0569 55.6686 68.4192 55.4026 67.899C55.1365 67.3787 54.5003 67.1731 53.9813 67.4397C53.5187 67.6773 53.018 67.7977 52.4935 67.7977C50.6909 67.7977 49.2244 66.3279 49.2244 64.5215C49.2244 62.7149 50.6909 61.2451 52.4935 61.2451C54.2035 61.2451 55.6358 62.5822 55.7546 64.2892C55.7952 64.8722 56.2995 65.3116 56.8814 65.2713C57.4632 65.2307 57.9019 64.7249 57.8613 64.142C57.6908 61.691 55.8767 59.7035 53.5495 59.2342V57.4963H54.0116C54.5949 57.4963 55.0675 57.0225 55.0675 56.438C55.0675 55.8536 54.5949 55.3797 54.0116 55.3797H53.5495V54.611C53.5495 54.0265 53.0767 53.5527 52.4935 53.5527C51.9102 53.5527 51.4376 54.0265 51.4376 54.611V55.3797H50.9755C50.3922 55.3797 49.9195 55.8536 49.9195 56.438C49.9195 57.0225 50.3922 57.4963 50.9755 57.4963H51.4376V59.2334C49.1344 59.6945 47.358 61.6334 47.1367 64.0181H45.1032C44.6537 64.0181 44.2877 63.6515 44.2877 63.2008V63.0611C45.945 62.5975 47.1649 61.0718 47.1649 59.2648V57.4956C47.1649 55.7682 46.6107 54.0833 45.5973 52.6907C45.6329 52.503 45.6565 52.3111 45.666 52.1154C46.1951 52.4308 46.7364 52.5943 47.2726 52.5943C47.351 52.5943 47.4293 52.5909 47.5076 52.5839C47.8769 52.5507 48.4102 52.3889 48.8534 51.8061C49.5382 50.9057 49.6935 49.3631 49.6675 47.9896C51.5403 49.474 53.9355 50.8933 55.8429 50.893C56.5591 50.893 57.2068 50.6928 57.7317 50.2208C58.1032 49.8868 58.3106 49.4282 58.3316 48.8947C58.3604 48.1619 58.001 47.2979 57.4839 46.4474C59.7363 47.0919 62.1398 47.4499 63.424 46.8218C63.9586 46.5605 64.3237 46.1245 64.4521 45.5942C64.7073 44.5393 64.2374 43.4295 63.1052 42.3408C65.0447 42.1409 66.4544 41.5202 67.2556 40.8414C68.0602 40.1596 68.2373 39.4679 68.2442 39.0078C68.2555 38.2589 67.881 37.6009 67.1289 37.0457C68.0088 36.7077 68.6849 36.2473 69.1514 35.6668C69.7195 34.9583 69.9393 34.1064 69.7858 33.2029ZM20.1779 70.2985L17.3512 62.5146L18.3748 62.1411L21.2015 69.9251L20.1779 70.2985ZM50.1973 24.1092L51.2745 24.4703C52.119 24.7534 52.762 25.4707 52.9524 26.3425L53.0875 26.9613L52.702 26.8135C52.1753 26.6117 51.6224 26.5094 51.0585 26.5094H49.3644C49.5494 25.7363 49.8372 24.9055 50.1973 24.1092ZM39.6524 26.1928C40.1015 25.3749 39.8668 24.3498 39.1063 23.808C38.4432 23.3357 38.1744 22.5618 38.3041 21.503C39.8254 22.1823 41.873 22.2775 43.5462 22.2775H47.6682C47.9384 22.2775 48.1907 22.4111 48.3429 22.6348L48.4682 22.8189C47.8786 24.0285 47.4339 25.3277 47.2022 26.5094H46.4461C45.0604 26.5094 43.7996 27.2756 43.1555 28.5092C42.4475 29.8648 41.7123 31.735 41.1697 33.541H36.6595C37.413 30.62 38.6699 27.9815 39.6524 26.1928ZM18.941 26.5094C18.3771 26.5094 17.8242 26.6117 17.2974 26.8137L16.912 26.9614L17.0472 26.3425C17.2377 25.4707 17.8806 24.7534 18.7251 24.4703L19.8023 24.1092C20.1623 24.9053 20.4502 25.7363 20.6352 26.5094H18.941ZM23.5533 26.5094H22.7973C22.5654 25.3277 22.1207 24.0286 21.5312 22.8189L21.6564 22.6349C21.8087 22.411 22.061 22.2775 22.3312 22.2775H26.4533C28.1266 22.2775 30.1742 22.1823 31.6953 21.503C31.825 22.5617 31.5562 23.3357 30.8931 23.808C30.1327 24.3497 29.898 25.3749 30.3471 26.1928C31.3297 27.9815 32.5866 30.62 33.3401 33.5409H28.8299C28.2873 31.7349 27.552 29.8647 26.844 28.509C26.1998 27.2756 24.939 26.5094 23.5533 26.5094ZM28.5891 57.4952V59.2644C28.5891 60.2708 27.7721 61.0896 26.7679 61.0896C25.7638 61.0896 24.9468 60.2709 24.9468 59.2644V57.4952C24.9468 56.5786 25.1584 55.6779 25.5543 54.861C26.3052 55.6095 27.3393 56.0727 28.4793 56.0727H29.0584C28.7582 56.4791 28.5891 56.9757 28.5891 57.4952ZM37.7834 53.956H37.7779H37.5976C36.9297 53.956 36.2896 54.2039 35.7953 54.6539L34.9998 55.3782L34.2043 54.654C33.71 54.2041 33.0699 53.9561 32.402 53.9561H32.2222C32.2201 53.9561 32.2181 53.9561 32.216 53.9561H28.4796C27.3555 53.9561 26.4409 53.0395 26.4409 51.9129V36.0852C26.4409 35.8494 26.6322 35.6576 26.8675 35.6576H28.0305L28.0338 35.6579L28.0381 35.6576H34.655H34.663H35.3347H35.3468H41.9619L41.966 35.6579L41.9694 35.6576H43.1324C43.3676 35.6576 43.559 35.8494 43.559 36.0852V51.9129C43.559 53.0395 42.6445 53.9561 41.5203 53.9561L37.7834 53.956ZM45.0525 59.2644C45.0525 60.2708 44.2355 61.0896 43.2313 61.0896C42.2272 61.0896 41.4103 60.2709 41.4103 59.2644V57.4952C41.4103 56.9758 41.2412 56.4791 40.9409 56.0727H41.52C42.6601 56.0727 43.6941 55.6095 44.445 54.861C44.8408 55.6779 45.0525 56.5786 45.0525 57.4952V59.2644ZM67.5059 34.3388C67.2375 34.6728 66.2928 35.4646 63.323 35.6029C62.7987 35.6273 62.372 36.034 62.3211 36.5576C62.2705 37.0812 62.611 37.5627 63.1209 37.688C65.4951 38.271 66.0256 38.849 66.1194 38.9815C65.8596 39.5085 63.6346 40.7311 59.6825 40.1248C59.1721 40.0466 58.6786 40.3505 58.5186 40.8433C58.3585 41.3362 58.5781 41.8726 59.0374 42.1108C61.3292 43.2994 62.3355 44.4298 62.4036 44.9633C61.5233 45.2784 57.99 44.6754 54.7844 43.2209C54.324 43.0121 53.7807 43.1594 53.488 43.5721C53.1954 43.985 53.2355 44.5477 53.5838 44.9146C55.3232 46.7466 56.1441 48.19 56.2168 48.7121C55.8229 48.8944 54.8618 48.7417 53.4442 47.9803C51.9844 47.1964 50.327 45.9215 49.1191 44.6531C48.7972 44.3152 48.2925 44.2286 47.8764 44.4405C47.461 44.6523 47.2332 45.1123 47.3162 45.5722C47.7732 48.1061 47.5056 50.0117 47.212 50.4725C46.9058 50.4337 46.3383 50.1423 45.6708 49.2576V42.0169C47.6056 42.1152 50.1566 41.5075 52.1621 39.8253C53.7172 38.5211 55.5733 36.0239 55.585 31.5345C55.5852 31.4126 55.6454 31.3296 55.6958 31.2816C55.7398 31.2397 55.838 31.1713 55.9757 31.1768C56.9077 31.2207 57.5811 31.4527 57.8235 31.8132C58.0308 32.1216 58.3848 32.2977 58.7549 32.2787C60.8743 32.1664 63.1093 32.24 64.7338 32.4753C67.0654 32.8129 67.6743 33.3844 67.7039 33.558C67.7555 33.863 67.6944 34.1039 67.5059 34.3388Z" fill="#682121"/>
</svg>
